<svg width="200" height="97" viewBox="0 0 200 97" fill="none" xmlns="http://www.w3.org/2000/svg">
<path d="M7.98411 46.3849V67.8363L18.0398 57.4205H27.4797L16.5225 68.0598L28.7115 86.374H19.0476L11.0691 73.4351L7.97852 76.4045V86.374H0V46.3849H7.98411Z" fill="white"/>
<path d="M42.5931 94.9975C41.0588 96.0081 38.92 96.5104 36.1877 96.5104C35.3648 96.5104 34.5473 96.4825 33.7467 96.4265C32.9403 96.3708 32.1286 96.3037 31.3054 96.2312V89.6782C32.0556 89.7507 32.8229 89.8289 33.6067 89.9013C34.3905 89.9738 35.18 89.9963 35.9638 89.957C37.0108 89.8456 37.7889 89.4326 38.2931 88.7237C38.7969 88.0147 39.0489 87.2276 39.0489 86.3737C39.0489 85.7372 38.9369 85.14 38.7127 84.5817L28.5451 57.4201H37.0277L43.6007 77.2472H43.7127L50.062 57.4201H58.3204L46.1874 89.9627C45.3251 92.3127 44.127 93.993 42.5931 94.9975Z" fill="white"/>
<path d="M78.7162 82.6787C77.7813 84.2472 76.5549 85.3749 75.0378 86.067C73.5203 86.7589 71.807 87.1051 69.8978 87.1051C67.7254 87.1051 65.8162 86.6864 64.1702 85.8436C62.5241 85.0008 61.1635 83.8677 60.0997 82.4274C59.0305 80.993 58.2241 79.3406 57.6867 77.4707C57.1435 75.6063 56.8692 73.6639 56.8692 71.6431C56.8692 69.7008 57.1378 67.8252 57.6867 66.0168C58.2295 64.208 59.0359 62.6116 60.0997 61.2273C61.1692 59.8486 62.5073 58.7324 64.1143 57.8949C65.7267 57.0521 67.5968 56.6334 69.7299 56.6334C71.4543 56.6334 73.0892 56.9964 74.6457 57.7275C76.1968 58.4532 77.4286 59.5305 78.3245 60.9481H78.4362V46.3849H86.415V86.374H78.8283V82.6787H78.7162ZM78.3803 68.3668C78.1565 67.2669 77.7702 66.2956 77.227 65.4528C76.6838 64.61 75.9838 63.9346 75.1216 63.4098C74.2594 62.8851 73.1733 62.6227 71.8632 62.6227C70.553 62.6227 69.4499 62.8851 68.5486 63.4098C67.647 63.9346 66.9305 64.621 66.3873 65.4806C65.8441 66.3402 65.4524 67.323 65.206 68.4225C64.9597 69.522 64.8419 70.6721 64.8419 71.8666C64.8419 72.9885 64.9708 74.1048 65.234 75.2268C65.4971 76.3488 65.9171 77.3479 66.4994 78.2243C67.0816 79.1007 67.8095 79.8096 68.6886 80.3511C69.5676 80.8924 70.6257 81.1658 71.8632 81.1658C73.1733 81.1658 74.2708 80.9037 75.1499 80.3844C76.0289 79.8599 76.7343 79.1621 77.2549 78.2857C77.7813 77.4093 78.1565 76.4102 78.3803 75.2882C78.6042 74.1662 78.7162 73.0107 78.7162 71.8162C78.7162 70.6161 78.6042 69.472 78.3803 68.3668Z" fill="white"/>
<path d="M110.4 46.3849V86.374H102.421V46.3849H110.4Z" fill="white"/>
<path d="M113.435 66.3235C113.547 64.459 114.017 62.9072 114.84 61.6738C115.663 60.4401 116.71 59.452 117.987 58.7042C119.258 57.956 120.691 57.4258 122.287 57.1078C123.877 56.7894 125.478 56.6333 127.09 56.6333C128.552 56.6333 130.03 56.7394 131.53 56.9403C133.025 57.1467 134.397 57.5486 135.629 58.1459C136.866 58.7431 137.874 59.5748 138.663 60.6411C139.453 61.7071 139.845 63.1139 139.845 64.872V79.9378C139.845 81.244 139.918 82.4941 140.069 83.6889C140.22 84.8833 140.483 85.7819 140.853 86.3794H132.762C132.611 85.9328 132.488 85.4749 132.398 85.0061C132.303 84.5371 132.236 84.0627 132.202 83.5772C130.931 84.8833 129.431 85.7986 127.706 86.3234C125.982 86.8481 124.224 87.1048 122.427 87.1048C121.038 87.1048 119.75 86.9374 118.552 86.6025C117.354 86.2677 116.307 85.7429 115.406 85.034C114.504 84.325 113.804 83.4265 113.3 82.3435C112.796 81.2607 112.544 79.9713 112.544 78.481C112.544 76.8396 112.835 75.4834 113.418 74.4229C114 73.3566 114.745 72.5081 115.663 71.8719C116.581 71.2354 117.628 70.761 118.81 70.4429C119.991 70.1249 121.178 69.8736 122.376 69.6894C123.574 69.5052 124.756 69.3545 125.915 69.2428C127.074 69.1311 128.104 68.9637 129.005 68.7405C129.907 68.5171 130.618 68.1879 131.139 67.7581C131.665 67.3283 131.906 66.7029 131.866 65.8826C131.866 65.023 131.726 64.3419 131.447 63.8396C131.167 63.337 130.791 62.9408 130.321 62.6616C129.851 62.3825 129.308 62.1929 128.692 62.1036C128.076 62.0087 127.41 61.9641 126.699 61.9641C125.125 61.9641 123.888 62.2989 122.992 62.9743C122.091 63.644 121.57 64.766 121.419 66.3345H113.435V66.3235ZM131.861 72.2011C131.525 72.5027 131.105 72.7315 130.596 72.8989C130.092 73.0664 129.549 73.2059 128.966 73.3177C128.384 73.4291 127.779 73.524 127.141 73.5965C126.502 73.6693 125.87 73.7642 125.232 73.8756C124.633 73.9874 124.045 74.138 123.462 74.3222C122.88 74.5121 122.376 74.7634 121.945 75.0758C121.514 75.3942 121.167 75.7958 120.904 76.2816C120.641 76.7671 120.512 77.3811 120.512 78.129C120.512 78.838 120.641 79.4352 120.904 79.921C121.167 80.4065 121.52 80.7863 121.973 81.0708C122.421 81.35 122.947 81.5453 123.546 81.657C124.145 81.7687 124.761 81.8244 125.4 81.8244C126.973 81.8244 128.188 81.562 129.05 81.043C129.912 80.5182 130.545 79.8932 130.959 79.1674C131.374 78.4417 131.626 77.7049 131.715 76.957C131.81 76.2088 131.855 75.6116 131.855 75.165V72.2011H131.861Z" fill="white"/>
<path d="M151.073 46.3849V60.9481H151.185C152.159 59.4578 153.48 58.3639 155.143 57.6718C156.812 56.9796 158.542 56.6334 160.339 56.6334C161.8 56.6334 163.239 56.935 164.667 57.5322C166.089 58.1294 167.371 59.0447 168.514 60.2784C169.656 61.5121 170.585 63.086 171.296 65.0119C172.007 66.9378 172.366 69.2207 172.366 71.8719C172.366 74.5235 172.007 76.8121 171.296 78.7323C170.585 80.6581 169.656 82.2321 168.514 83.4658C167.371 84.6995 166.089 85.6148 164.667 86.212C163.245 86.8092 161.8 87.1108 160.339 87.1108C158.206 87.1108 156.297 86.7757 154.611 86.1003C152.926 85.4306 151.649 84.2918 150.793 82.6843H150.681V86.3794H143.094V46.3849H151.073ZM163.995 68.3946C163.732 67.2726 163.323 66.2845 162.758 65.4249C162.198 64.5653 161.492 63.8843 160.653 63.382C159.807 62.8797 158.788 62.6284 157.59 62.6284C156.431 62.6284 155.418 62.8797 154.556 63.382C153.693 63.8843 152.982 64.5653 152.422 65.4249C151.862 66.2845 151.448 67.2726 151.185 68.3946C150.922 69.5166 150.793 70.6886 150.793 71.9223C150.793 73.1167 150.922 74.2722 151.185 75.3942C151.448 76.5162 151.857 77.5043 152.422 78.3639C152.982 79.2235 153.693 79.9046 154.556 80.4069C155.418 80.9091 156.425 81.1604 157.59 81.1604C158.788 81.1604 159.807 80.9091 160.653 80.4069C161.498 79.9046 162.198 79.2235 162.758 78.3639C163.318 77.5043 163.732 76.5162 163.995 75.3942C164.258 74.2722 164.387 73.1167 164.387 71.9223C164.387 70.6943 164.258 69.5166 163.995 68.3946Z" fill="white"/>
<path d="M181.21 79.1785C181.563 79.7925 182.027 80.3005 182.587 80.6914C183.147 81.0819 183.797 81.3721 184.524 81.562C185.252 81.7519 186.014 81.8412 186.798 81.8412C187.357 81.8412 187.951 81.7741 188.567 81.6459C189.183 81.5174 189.748 81.3107 190.252 81.0319C190.756 80.7528 191.182 80.3787 191.517 79.9099C191.853 79.4409 192.022 78.8547 192.022 78.1458C192.022 76.9513 191.226 76.0528 189.636 75.4556C188.046 74.858 185.824 74.2608 182.979 73.6636C181.82 73.4012 180.684 73.0942 179.581 72.7369C178.477 72.3853 177.492 71.9165 176.63 71.3361C175.768 70.7553 175.073 70.0299 174.553 69.1535C174.026 68.2772 173.763 67.2055 173.763 65.9326C173.763 64.0684 174.127 62.5334 174.861 61.3387C175.589 60.1442 176.557 59.2011 177.755 58.5089C178.954 57.8167 180.303 57.3309 181.798 57.0517C183.293 56.7729 184.832 56.6333 186.406 56.6333C187.979 56.6333 189.502 56.784 190.986 57.0799C192.464 57.3812 193.785 57.8835 194.944 58.5924C196.103 59.3014 197.072 60.2449 197.839 61.4225C198.606 62.6002 199.065 64.0852 199.216 65.8769H191.63C191.517 64.3476 190.935 63.3092 189.888 62.7676C188.841 62.2264 187.604 61.9527 186.182 61.9527C185.734 61.9527 185.247 61.9808 184.72 62.0365C184.194 62.0922 183.718 62.215 183.287 62.3992C182.856 62.5891 182.492 62.8572 182.19 63.2142C181.887 63.5715 181.742 64.046 181.742 64.6432C181.742 65.3521 182.005 65.9326 182.526 66.3792C183.052 66.8257 183.735 67.1941 184.575 67.4733C185.42 67.7524 186.383 68.0037 187.47 68.2269C188.556 68.45 189.659 68.6959 190.784 68.9526C191.943 69.2149 193.08 69.533 194.183 69.9071C195.286 70.2809 196.271 70.7721 197.133 71.3918C197.996 72.0058 198.69 72.7761 199.211 73.6861C199.737 74.6014 200 75.729 200 77.0741C200 78.9775 199.614 80.5739 198.847 81.8633C198.08 83.1531 197.077 84.1855 195.84 84.9726C194.603 85.754 193.192 86.3066 191.596 86.625C190.006 86.9431 188.382 87.0994 186.736 87.0994C185.051 87.0994 183.405 86.932 181.792 86.5968C180.18 86.262 178.746 85.6983 177.492 84.9169C176.238 84.1355 175.208 83.097 174.402 81.8076C173.595 80.5182 173.159 78.9051 173.08 76.9624H180.667C180.678 77.8223 180.857 78.5591 181.21 79.1785Z" fill="white"/>
<path d="M117.185 25.1186V19.1073H102.266L112.795 8.61021L108.584 4.30335L98.0546 14.8004V0H91.9158L91.9511 14.6952L81.4958 4.30335L77.1758 8.61021L87.74 19.1073H72.7853V25.1186H117.185Z" fill="white"/>
</svg>
