<svg width="155" height="155" viewBox="0 0 155 155" fill="none" xmlns="http://www.w3.org/2000/svg">
<path d="M19.9083 152.156C19.9083 153.727 18.6349 155 17.0642 155C15.4935 155 14.2202 153.727 14.2202 152.156C14.2202 150.585 15.4935 149.312 17.0642 149.312C18.6349 149.312 19.9083 150.585 19.9083 152.156Z" fill="white"/>
<path d="M140.78 152.156C140.78 153.727 139.506 155 137.936 155C136.365 155 135.092 153.727 135.092 152.156C135.092 150.585 136.365 149.312 137.936 149.312C139.506 149.312 140.78 150.585 140.78 152.156Z" fill="white"/>
<path d="M19.9083 145.046C19.9083 146.617 18.6349 147.89 17.0642 147.89C15.4935 147.89 14.2202 146.617 14.2202 145.046C14.2202 143.475 15.4935 142.202 17.0642 142.202C18.6349 142.202 19.9083 143.475 19.9083 145.046Z" fill="white"/>
<path d="M27.0183 145.046C27.0183 146.617 25.745 147.89 24.1743 147.89C22.6036 147.89 21.3303 146.617 21.3303 145.046C21.3303 143.475 22.6036 142.202 24.1743 142.202C25.745 142.202 27.0183 143.475 27.0183 145.046Z" fill="white"/>
<path d="M133.67 145.046C133.67 146.617 132.396 147.89 130.826 147.89C129.255 147.89 127.982 146.617 127.982 145.046C127.982 143.475 129.255 142.202 130.826 142.202C132.396 142.202 133.67 143.475 133.67 145.046Z" fill="white"/>
<path d="M140.78 145.046C140.78 146.617 139.506 147.89 137.936 147.89C136.365 147.89 135.092 146.617 135.092 145.046C135.092 143.475 136.365 142.202 137.936 142.202C139.506 142.202 140.78 143.475 140.78 145.046Z" fill="white"/>
<path d="M19.9083 137.936C19.9083 139.506 18.6349 140.78 17.0642 140.78C15.4935 140.78 14.2202 139.506 14.2202 137.936C14.2202 136.365 15.4935 135.092 17.0642 135.092C18.6349 135.092 19.9083 136.365 19.9083 137.936Z" fill="white"/>
<path d="M27.0183 137.936C27.0183 139.506 25.745 140.78 24.1743 140.78C22.6036 140.78 21.3303 139.506 21.3303 137.936C21.3303 136.365 22.6036 135.092 24.1743 135.092C25.745 135.092 27.0183 136.365 27.0183 137.936Z" fill="white"/>
<path d="M34.1284 137.936C34.1284 139.506 32.8551 140.78 31.2844 140.78C29.7137 140.78 28.4404 139.506 28.4404 137.936C28.4404 136.365 29.7137 135.092 31.2844 135.092C32.8551 135.092 34.1284 136.365 34.1284 137.936Z" fill="white"/>
<path d="M126.56 137.936C126.56 139.506 125.286 140.78 123.716 140.78C122.145 140.78 120.872 139.506 120.872 137.936C120.872 136.365 122.145 135.092 123.716 135.092C125.286 135.092 126.56 136.365 126.56 137.936Z" fill="white"/>
<path d="M133.67 137.936C133.67 139.506 132.396 140.78 130.826 140.78C129.255 140.78 127.982 139.506 127.982 137.936C127.982 136.365 129.255 135.092 130.826 135.092C132.396 135.092 133.67 136.365 133.67 137.936Z" fill="white"/>
<path d="M140.78 137.936C140.78 139.506 139.506 140.78 137.936 140.78C136.365 140.78 135.092 139.506 135.092 137.936C135.092 136.365 136.365 135.092 137.936 135.092C139.506 135.092 140.78 136.365 140.78 137.936Z" fill="white"/>
<path d="M19.9083 130.826C19.9083 132.396 18.6349 133.67 17.0642 133.67C15.4935 133.67 14.2202 132.396 14.2202 130.826C14.2202 129.255 15.4935 127.982 17.0642 127.982C18.6349 127.982 19.9083 129.255 19.9083 130.826Z" fill="white"/>
<path d="M27.0183 130.826C27.0183 132.396 25.745 133.67 24.1743 133.67C22.6036 133.67 21.3303 132.396 21.3303 130.826C21.3303 129.255 22.6036 127.982 24.1743 127.982C25.745 127.982 27.0183 129.255 27.0183 130.826Z" fill="white"/>
<path d="M34.1284 130.826C34.1284 132.396 32.8551 133.67 31.2844 133.67C29.7137 133.67 28.4404 132.396 28.4404 130.826C28.4404 129.255 29.7137 127.982 31.2844 127.982C32.8551 127.982 34.1284 129.255 34.1284 130.826Z" fill="white"/>
<path d="M41.2385 130.826C41.2385 132.396 39.9652 133.67 38.3945 133.67C36.8238 133.67 35.5505 132.396 35.5505 130.826C35.5505 129.255 36.8238 127.982 38.3945 127.982C39.9652 127.982 41.2385 129.255 41.2385 130.826Z" fill="white"/>
<path d="M119.45 130.826C119.45 132.396 118.176 133.67 116.606 133.67C115.035 133.67 113.761 132.396 113.761 130.826C113.761 129.255 115.035 127.982 116.606 127.982C118.176 127.982 119.45 129.255 119.45 130.826Z" fill="white"/>
<path d="M126.56 130.826C126.56 132.396 125.286 133.67 123.716 133.67C122.145 133.67 120.872 132.396 120.872 130.826C120.872 129.255 122.145 127.982 123.716 127.982C125.286 127.982 126.56 129.255 126.56 130.826Z" fill="white"/>
<path d="M133.67 130.826C133.67 132.396 132.396 133.67 130.826 133.67C129.255 133.67 127.982 132.396 127.982 130.826C127.982 129.255 129.255 127.982 130.826 127.982C132.396 127.982 133.67 129.255 133.67 130.826Z" fill="white"/>
<path d="M140.78 130.826C140.78 132.396 139.506 133.67 137.936 133.67C136.365 133.67 135.092 132.396 135.092 130.826C135.092 129.255 136.365 127.982 137.936 127.982C139.506 127.982 140.78 129.255 140.78 130.826Z" fill="white"/>
<path d="M19.9083 123.716C19.9083 125.286 18.6349 126.56 17.0642 126.56C15.4935 126.56 14.2202 125.286 14.2202 123.716C14.2202 122.145 15.4935 120.872 17.0642 120.872C18.6349 120.872 19.9083 122.145 19.9083 123.716Z" fill="white"/>
<path d="M27.0183 123.716C27.0183 125.286 25.745 126.56 24.1743 126.56C22.6036 126.56 21.3303 125.286 21.3303 123.716C21.3303 122.145 22.6036 120.872 24.1743 120.872C25.745 120.872 27.0183 122.145 27.0183 123.716Z" fill="white"/>
<path d="M34.1284 123.716C34.1284 125.286 32.8551 126.56 31.2844 126.56C29.7137 126.56 28.4404 125.286 28.4404 123.716C28.4404 122.145 29.7137 120.872 31.2844 120.872C32.8551 120.872 34.1284 122.145 34.1284 123.716Z" fill="white"/>
<path d="M41.2385 123.716C41.2385 125.286 39.9652 126.56 38.3945 126.56C36.8238 126.56 35.5505 125.286 35.5505 123.716C35.5505 122.145 36.8238 120.872 38.3945 120.872C39.9652 120.872 41.2385 122.145 41.2385 123.716Z" fill="white"/>
<path d="M48.3486 123.716C48.3486 125.286 47.0753 126.56 45.5046 126.56C43.9339 126.56 42.6605 125.286 42.6605 123.716C42.6605 122.145 43.9339 120.872 45.5046 120.872C47.0753 120.872 48.3486 122.145 48.3486 123.716Z" fill="white"/>
<path d="M112.339 123.716C112.339 125.286 111.066 126.56 109.495 126.56C107.925 126.56 106.651 125.286 106.651 123.716C106.651 122.145 107.925 120.872 109.495 120.872C111.066 120.872 112.339 122.145 112.339 123.716Z" fill="white"/>
<path d="M119.45 123.716C119.45 125.286 118.176 126.56 116.606 126.56C115.035 126.56 113.761 125.286 113.761 123.716C113.761 122.145 115.035 120.872 116.606 120.872C118.176 120.872 119.45 122.145 119.45 123.716Z" fill="white"/>
<path d="M126.56 123.716C126.56 125.286 125.286 126.56 123.716 126.56C122.145 126.56 120.872 125.286 120.872 123.716C120.872 122.145 122.145 120.872 123.716 120.872C125.286 120.872 126.56 122.145 126.56 123.716Z" fill="white"/>
<path d="M133.67 123.716C133.67 125.286 132.396 126.56 130.826 126.56C129.255 126.56 127.982 125.286 127.982 123.716C127.982 122.145 129.255 120.872 130.826 120.872C132.396 120.872 133.67 122.145 133.67 123.716Z" fill="white"/>
<path d="M140.78 123.716C140.78 125.286 139.506 126.56 137.936 126.56C136.365 126.56 135.092 125.286 135.092 123.716C135.092 122.145 136.365 120.872 137.936 120.872C139.506 120.872 140.78 122.145 140.78 123.716Z" fill="white"/>
<path d="M19.9083 116.606C19.9083 118.176 18.6349 119.45 17.0642 119.45C15.4935 119.45 14.2202 118.176 14.2202 116.606C14.2202 115.035 15.4935 113.761 17.0642 113.761C18.6349 113.761 19.9083 115.035 19.9083 116.606Z" fill="white"/>
<path d="M27.0183 116.606C27.0183 118.176 25.745 119.45 24.1743 119.45C22.6036 119.45 21.3303 118.176 21.3303 116.606C21.3303 115.035 22.6036 113.761 24.1743 113.761C25.745 113.761 27.0183 115.035 27.0183 116.606Z" fill="white"/>
<path d="M34.1284 116.606C34.1284 118.176 32.8551 119.45 31.2844 119.45C29.7137 119.45 28.4404 118.176 28.4404 116.606C28.4404 115.035 29.7137 113.761 31.2844 113.761C32.8551 113.761 34.1284 115.035 34.1284 116.606Z" fill="white"/>
<path d="M41.2385 116.606C41.2385 118.176 39.9652 119.45 38.3945 119.45C36.8238 119.45 35.5505 118.176 35.5505 116.606C35.5505 115.035 36.8238 113.761 38.3945 113.761C39.9652 113.761 41.2385 115.035 41.2385 116.606Z" fill="white"/>
<path d="M48.3486 116.606C48.3486 118.176 47.0753 119.45 45.5046 119.45C43.9339 119.45 42.6605 118.176 42.6605 116.606C42.6605 115.035 43.9339 113.761 45.5046 113.761C47.0753 113.761 48.3486 115.035 48.3486 116.606Z" fill="white"/>
<path d="M55.4587 116.606C55.4587 118.176 54.1854 119.45 52.6147 119.45C51.044 119.45 49.7706 118.176 49.7706 116.606C49.7706 115.035 51.044 113.761 52.6147 113.761C54.1854 113.761 55.4587 115.035 55.4587 116.606Z" fill="white"/>
<path d="M105.229 116.606C105.229 118.176 103.956 119.45 102.385 119.45C100.815 119.45 99.5413 118.176 99.5413 116.606C99.5413 115.035 100.815 113.761 102.385 113.761C103.956 113.761 105.229 115.035 105.229 116.606Z" fill="white"/>
<path d="M112.339 116.606C112.339 118.176 111.066 119.45 109.495 119.45C107.925 119.45 106.651 118.176 106.651 116.606C106.651 115.035 107.925 113.761 109.495 113.761C111.066 113.761 112.339 115.035 112.339 116.606Z" fill="white"/>
<path d="M119.45 116.606C119.45 118.176 118.176 119.45 116.606 119.45C115.035 119.45 113.761 118.176 113.761 116.606C113.761 115.035 115.035 113.761 116.606 113.761C118.176 113.761 119.45 115.035 119.45 116.606Z" fill="white"/>
<path d="M126.56 116.606C126.56 118.176 125.286 119.45 123.716 119.45C122.145 119.45 120.872 118.176 120.872 116.606C120.872 115.035 122.145 113.761 123.716 113.761C125.286 113.761 126.56 115.035 126.56 116.606Z" fill="white"/>
<path d="M133.67 116.606C133.67 118.176 132.396 119.45 130.826 119.45C129.255 119.45 127.982 118.176 127.982 116.606C127.982 115.035 129.255 113.761 130.826 113.761C132.396 113.761 133.67 115.035 133.67 116.606Z" fill="white"/>
<path d="M140.78 116.606C140.78 118.176 139.506 119.45 137.936 119.45C136.365 119.45 135.092 118.176 135.092 116.606C135.092 115.035 136.365 113.761 137.936 113.761C139.506 113.761 140.78 115.035 140.78 116.606Z" fill="white"/>
<path d="M27.0183 109.495C27.0183 111.066 25.745 112.339 24.1743 112.339C22.6036 112.339 21.3303 111.066 21.3303 109.495C21.3303 107.925 22.6036 106.651 24.1743 106.651C25.745 106.651 27.0183 107.925 27.0183 109.495Z" fill="white"/>
<path d="M34.1284 109.495C34.1284 111.066 32.8551 112.339 31.2844 112.339C29.7137 112.339 28.4404 111.066 28.4404 109.495C28.4404 107.925 29.7137 106.651 31.2844 106.651C32.8551 106.651 34.1284 107.925 34.1284 109.495Z" fill="white"/>
<path d="M41.2385 109.495C41.2385 111.066 39.9652 112.339 38.3945 112.339C36.8238 112.339 35.5505 111.066 35.5505 109.495C35.5505 107.925 36.8238 106.651 38.3945 106.651C39.9652 106.651 41.2385 107.925 41.2385 109.495Z" fill="white"/>
<path d="M48.3486 109.495C48.3486 111.066 47.0753 112.339 45.5046 112.339C43.9339 112.339 42.6605 111.066 42.6605 109.495C42.6605 107.925 43.9339 106.651 45.5046 106.651C47.0753 106.651 48.3486 107.925 48.3486 109.495Z" fill="white"/>
<path d="M55.4587 109.495C55.4587 111.066 54.1854 112.339 52.6147 112.339C51.044 112.339 49.7706 111.066 49.7706 109.495C49.7706 107.925 51.044 106.651 52.6147 106.651C54.1854 106.651 55.4587 107.925 55.4587 109.495Z" fill="white"/>
<path d="M62.5688 109.495C62.5688 111.066 61.2955 112.339 59.7248 112.339C58.1541 112.339 56.8807 111.066 56.8807 109.495C56.8807 107.925 58.1541 106.651 59.7248 106.651C61.2955 106.651 62.5688 107.925 62.5688 109.495Z" fill="white"/>
<path d="M98.1193 109.495C98.1193 111.066 96.8459 112.339 95.2752 112.339C93.7045 112.339 92.4312 111.066 92.4312 109.495C92.4312 107.925 93.7045 106.651 95.2752 106.651C96.8459 106.651 98.1193 107.925 98.1193 109.495Z" fill="white"/>
<path d="M105.229 109.495C105.229 111.066 103.956 112.339 102.385 112.339C100.815 112.339 99.5413 111.066 99.5413 109.495C99.5413 107.925 100.815 106.651 102.385 106.651C103.956 106.651 105.229 107.925 105.229 109.495Z" fill="white"/>
<path d="M112.339 109.495C112.339 111.066 111.066 112.339 109.495 112.339C107.925 112.339 106.651 111.066 106.651 109.495C106.651 107.925 107.925 106.651 109.495 106.651C111.066 106.651 112.339 107.925 112.339 109.495Z" fill="white"/>
<path d="M119.45 109.495C119.45 111.066 118.176 112.339 116.606 112.339C115.035 112.339 113.761 111.066 113.761 109.495C113.761 107.925 115.035 106.651 116.606 106.651C118.176 106.651 119.45 107.925 119.45 109.495Z" fill="white"/>
<path d="M126.56 109.495C126.56 111.066 125.286 112.339 123.716 112.339C122.145 112.339 120.872 111.066 120.872 109.495C120.872 107.925 122.145 106.651 123.716 106.651C125.286 106.651 126.56 107.925 126.56 109.495Z" fill="white"/>
<path d="M133.67 109.495C133.67 111.066 132.396 112.339 130.826 112.339C129.255 112.339 127.982 111.066 127.982 109.495C127.982 107.925 129.255 106.651 130.826 106.651C132.396 106.651 133.67 107.925 133.67 109.495Z" fill="white"/>
<path d="M34.1284 102.385C34.1284 103.956 32.8551 105.229 31.2844 105.229C29.7137 105.229 28.4404 103.956 28.4404 102.385C28.4404 100.815 29.7137 99.5413 31.2844 99.5413C32.8551 99.5413 34.1284 100.815 34.1284 102.385Z" fill="white"/>
<path d="M41.2385 102.385C41.2385 103.956 39.9652 105.229 38.3945 105.229C36.8238 105.229 35.5505 103.956 35.5505 102.385C35.5505 100.815 36.8238 99.5413 38.3945 99.5413C39.9652 99.5413 41.2385 100.815 41.2385 102.385Z" fill="white"/>
<path d="M48.3486 102.385C48.3486 103.956 47.0753 105.229 45.5046 105.229C43.9339 105.229 42.6605 103.956 42.6605 102.385C42.6605 100.815 43.9339 99.5413 45.5046 99.5413C47.0753 99.5413 48.3486 100.815 48.3486 102.385Z" fill="white"/>
<path d="M55.4587 102.385C55.4587 103.956 54.1854 105.229 52.6147 105.229C51.044 105.229 49.7706 103.956 49.7706 102.385C49.7706 100.815 51.044 99.5413 52.6147 99.5413C54.1854 99.5413 55.4587 100.815 55.4587 102.385Z" fill="white"/>
<path d="M62.5688 102.385C62.5688 103.956 61.2955 105.229 59.7248 105.229C58.1541 105.229 56.8807 103.956 56.8807 102.385C56.8807 100.815 58.1541 99.5413 59.7248 99.5413C61.2955 99.5413 62.5688 100.815 62.5688 102.385Z" fill="white"/>
<path d="M98.1193 102.385C98.1193 103.956 96.8459 105.229 95.2752 105.229C93.7045 105.229 92.4312 103.956 92.4312 102.385C92.4312 100.815 93.7045 99.5413 95.2752 99.5413C96.8459 99.5413 98.1193 100.815 98.1193 102.385Z" fill="white"/>
<path d="M105.229 102.385C105.229 103.956 103.956 105.229 102.385 105.229C100.815 105.229 99.5413 103.956 99.5413 102.385C99.5413 100.815 100.815 99.5413 102.385 99.5413C103.956 99.5413 105.229 100.815 105.229 102.385Z" fill="white"/>
<path d="M112.339 102.385C112.339 103.956 111.066 105.229 109.495 105.229C107.925 105.229 106.651 103.956 106.651 102.385C106.651 100.815 107.925 99.5413 109.495 99.5413C111.066 99.5413 112.339 100.815 112.339 102.385Z" fill="white"/>
<path d="M119.45 102.385C119.45 103.956 118.176 105.229 116.606 105.229C115.035 105.229 113.761 103.956 113.761 102.385C113.761 100.815 115.035 99.5413 116.606 99.5413C118.176 99.5413 119.45 100.815 119.45 102.385Z" fill="white"/>
<path d="M126.56 102.385C126.56 103.956 125.286 105.229 123.716 105.229C122.145 105.229 120.872 103.956 120.872 102.385C120.872 100.815 122.145 99.5413 123.716 99.5413C125.286 99.5413 126.56 100.815 126.56 102.385Z" fill="white"/>
<path d="M41.2385 95.2752C41.2385 96.8459 39.9652 98.1193 38.3945 98.1193C36.8238 98.1193 35.5505 96.8459 35.5505 95.2752C35.5505 93.7045 36.8238 92.4312 38.3945 92.4312C39.9652 92.4312 41.2385 93.7045 41.2385 95.2752Z" fill="white"/>
<path d="M48.3486 95.2752C48.3486 96.8459 47.0753 98.1193 45.5046 98.1193C43.9339 98.1193 42.6605 96.8459 42.6605 95.2752C42.6605 93.7045 43.9339 92.4312 45.5046 92.4312C47.0753 92.4312 48.3486 93.7045 48.3486 95.2752Z" fill="white"/>
<path d="M55.4587 95.2752C55.4587 96.8459 54.1854 98.1193 52.6147 98.1193C51.044 98.1193 49.7706 96.8459 49.7706 95.2752C49.7706 93.7045 51.044 92.4312 52.6147 92.4312C54.1854 92.4312 55.4587 93.7045 55.4587 95.2752Z" fill="white"/>
<path d="M62.5688 95.2752C62.5688 96.8459 61.2955 98.1193 59.7248 98.1193C58.1541 98.1193 56.8807 96.8459 56.8807 95.2752C56.8807 93.7045 58.1541 92.4312 59.7248 92.4312C61.2955 92.4312 62.5688 93.7045 62.5688 95.2752Z" fill="white"/>
<path d="M69.6789 95.2752C69.6789 96.8459 68.4056 98.1193 66.8349 98.1193C65.2641 98.1193 63.9908 96.8459 63.9908 95.2752C63.9908 93.7045 65.2641 92.4312 66.8349 92.4312C68.4056 92.4312 69.6789 93.7045 69.6789 95.2752Z" fill="white"/>
<path d="M91.0092 95.2752C91.0092 96.8459 89.7359 98.1193 88.1651 98.1193C86.5944 98.1193 85.3211 96.8459 85.3211 95.2752C85.3211 93.7045 86.5944 92.4312 88.1651 92.4312C89.7359 92.4312 91.0092 93.7045 91.0092 95.2752Z" fill="white"/>
<path d="M98.1193 95.2752C98.1193 96.8459 96.8459 98.1193 95.2752 98.1193C93.7045 98.1193 92.4312 96.8459 92.4312 95.2752C92.4312 93.7045 93.7045 92.4312 95.2752 92.4312C96.8459 92.4312 98.1193 93.7045 98.1193 95.2752Z" fill="white"/>
<path d="M105.229 95.2752C105.229 96.8459 103.956 98.1193 102.385 98.1193C100.815 98.1193 99.5413 96.8459 99.5413 95.2752C99.5413 93.7045 100.815 92.4312 102.385 92.4312C103.956 92.4312 105.229 93.7045 105.229 95.2752Z" fill="white"/>
<path d="M112.339 95.2752C112.339 96.8459 111.066 98.1193 109.495 98.1193C107.925 98.1193 106.651 96.8459 106.651 95.2752C106.651 93.7045 107.925 92.4312 109.495 92.4312C111.066 92.4312 112.339 93.7045 112.339 95.2752Z" fill="white"/>
<path d="M119.45 95.2752C119.45 96.8459 118.176 98.1193 116.606 98.1193C115.035 98.1193 113.761 96.8459 113.761 95.2752C113.761 93.7045 115.035 92.4312 116.606 92.4312C118.176 92.4312 119.45 93.7045 119.45 95.2752Z" fill="white"/>
<path d="M19.9083 88.1651C19.9083 89.7359 18.6349 91.0092 17.0642 91.0092C15.4935 91.0092 14.2202 89.7359 14.2202 88.1651C14.2202 86.5944 15.4935 85.3211 17.0642 85.3211C18.6349 85.3211 19.9083 86.5944 19.9083 88.1651Z" fill="white"/>
<path d="M27.0183 88.1651C27.0183 89.7359 25.745 91.0092 24.1743 91.0092C22.6036 91.0092 21.3303 89.7359 21.3303 88.1651C21.3303 86.5944 22.6036 85.3211 24.1743 85.3211C25.745 85.3211 27.0183 86.5944 27.0183 88.1651Z" fill="white"/>
<path d="M34.1284 88.1651C34.1284 89.7359 32.8551 91.0092 31.2844 91.0092C29.7137 91.0092 28.4404 89.7359 28.4404 88.1651C28.4404 86.5944 29.7137 85.3211 31.2844 85.3211C32.8551 85.3211 34.1284 86.5944 34.1284 88.1651Z" fill="white"/>
<path d="M41.2385 88.1651C41.2385 89.7359 39.9652 91.0092 38.3945 91.0092C36.8238 91.0092 35.5505 89.7359 35.5505 88.1651C35.5505 86.5944 36.8238 85.3211 38.3945 85.3211C39.9652 85.3211 41.2385 86.5944 41.2385 88.1651Z" fill="white"/>
<path d="M48.3486 88.1651C48.3486 89.7359 47.0753 91.0092 45.5046 91.0092C43.9339 91.0092 42.6605 89.7359 42.6605 88.1651C42.6605 86.5944 43.9339 85.3211 45.5046 85.3211C47.0753 85.3211 48.3486 86.5944 48.3486 88.1651Z" fill="white"/>
<path d="M55.4587 88.1651C55.4587 89.7359 54.1854 91.0092 52.6147 91.0092C51.044 91.0092 49.7706 89.7359 49.7706 88.1651C49.7706 86.5944 51.044 85.3211 52.6147 85.3211C54.1854 85.3211 55.4587 86.5944 55.4587 88.1651Z" fill="white"/>
<path d="M62.5688 88.1651C62.5688 89.7359 61.2955 91.0092 59.7248 91.0092C58.1541 91.0092 56.8807 89.7359 56.8807 88.1651C56.8807 86.5944 58.1541 85.3211 59.7248 85.3211C61.2955 85.3211 62.5688 86.5944 62.5688 88.1651Z" fill="white"/>
<path d="M69.6789 88.1651C69.6789 89.7359 68.4056 91.0092 66.8349 91.0092C65.2641 91.0092 63.9908 89.7359 63.9908 88.1651C63.9908 86.5944 65.2641 85.3211 66.8349 85.3211C68.4056 85.3211 69.6789 86.5944 69.6789 88.1651Z" fill="white"/>
<path d="M76.789 88.1651C76.789 89.7359 75.5157 91.0092 73.945 91.0092C72.3742 91.0092 71.1009 89.7359 71.1009 88.1651C71.1009 86.5944 72.3742 85.3211 73.945 85.3211C75.5157 85.3211 76.789 86.5944 76.789 88.1651Z" fill="white"/>
<path d="M83.8991 88.1651C83.8991 89.7359 82.6258 91.0092 81.055 91.0092C79.4843 91.0092 78.211 89.7359 78.211 88.1651C78.211 86.5944 79.4843 85.3211 81.055 85.3211C82.6258 85.3211 83.8991 86.5944 83.8991 88.1651Z" fill="white"/>
<path d="M91.0092 88.1651C91.0092 89.7359 89.7359 91.0092 88.1651 91.0092C86.5944 91.0092 85.3211 89.7359 85.3211 88.1651C85.3211 86.5944 86.5944 85.3211 88.1651 85.3211C89.7359 85.3211 91.0092 86.5944 91.0092 88.1651Z" fill="white"/>
<path d="M98.1193 88.1651C98.1193 89.7359 96.8459 91.0092 95.2752 91.0092C93.7045 91.0092 92.4312 89.7359 92.4312 88.1651C92.4312 86.5944 93.7045 85.3211 95.2752 85.3211C96.8459 85.3211 98.1193 86.5944 98.1193 88.1651Z" fill="white"/>
<path d="M105.229 88.1651C105.229 89.7359 103.956 91.0092 102.385 91.0092C100.815 91.0092 99.5413 89.7359 99.5413 88.1651C99.5413 86.5944 100.815 85.3211 102.385 85.3211C103.956 85.3211 105.229 86.5944 105.229 88.1651Z" fill="white"/>
<path d="M112.339 88.1651C112.339 89.7359 111.066 91.0092 109.495 91.0092C107.925 91.0092 106.651 89.7359 106.651 88.1651C106.651 86.5944 107.925 85.3211 109.495 85.3211C111.066 85.3211 112.339 86.5944 112.339 88.1651Z" fill="white"/>
<path d="M119.45 88.1651C119.45 89.7359 118.176 91.0092 116.606 91.0092C115.035 91.0092 113.761 89.7359 113.761 88.1651C113.761 86.5944 115.035 85.3211 116.606 85.3211C118.176 85.3211 119.45 86.5944 119.45 88.1651Z" fill="white"/>
<path d="M126.56 88.1651C126.56 89.7359 125.286 91.0092 123.716 91.0092C122.145 91.0092 120.872 89.7359 120.872 88.1651C120.872 86.5944 122.145 85.3211 123.716 85.3211C125.286 85.3211 126.56 86.5944 126.56 88.1651Z" fill="white"/>
<path d="M133.67 88.1651C133.67 89.7359 132.396 91.0092 130.826 91.0092C129.255 91.0092 127.982 89.7359 127.982 88.1651C127.982 86.5944 129.255 85.3211 130.826 85.3211C132.396 85.3211 133.67 86.5944 133.67 88.1651Z" fill="white"/>
<path d="M140.78 88.1651C140.78 89.7359 139.506 91.0092 137.936 91.0092C136.365 91.0092 135.092 89.7359 135.092 88.1651C135.092 86.5944 136.365 85.3211 137.936 85.3211C139.506 85.3211 140.78 86.5944 140.78 88.1651Z" fill="white"/>
<path d="M12.7982 81.055C12.7982 82.6258 11.5248 83.8991 9.95413 83.8991C8.38341 83.8991 7.11009 82.6258 7.11009 81.055C7.11009 79.4843 8.38341 78.211 9.95413 78.211C11.5248 78.211 12.7982 79.4843 12.7982 81.055Z" fill="white"/>
<path d="M19.9083 81.055C19.9083 82.6258 18.6349 83.8991 17.0642 83.8991C15.4935 83.8991 14.2202 82.6258 14.2202 81.055C14.2202 79.4843 15.4935 78.211 17.0642 78.211C18.6349 78.211 19.9083 79.4843 19.9083 81.055Z" fill="white"/>
<path d="M27.0183 81.055C27.0183 82.6258 25.745 83.8991 24.1743 83.8991C22.6036 83.8991 21.3303 82.6258 21.3303 81.055C21.3303 79.4843 22.6036 78.211 24.1743 78.211C25.745 78.211 27.0183 79.4843 27.0183 81.055Z" fill="white"/>
<path d="M34.1284 81.055C34.1284 82.6258 32.8551 83.8991 31.2844 83.8991C29.7137 83.8991 28.4404 82.6258 28.4404 81.055C28.4404 79.4843 29.7137 78.211 31.2844 78.211C32.8551 78.211 34.1284 79.4843 34.1284 81.055Z" fill="white"/>
<path d="M41.2385 81.055C41.2385 82.6258 39.9652 83.8991 38.3945 83.8991C36.8238 83.8991 35.5505 82.6258 35.5505 81.055C35.5505 79.4843 36.8238 78.211 38.3945 78.211C39.9652 78.211 41.2385 79.4843 41.2385 81.055Z" fill="white"/>
<path d="M48.3486 81.055C48.3486 82.6258 47.0753 83.8991 45.5046 83.8991C43.9339 83.8991 42.6605 82.6258 42.6605 81.055C42.6605 79.4843 43.9339 78.211 45.5046 78.211C47.0753 78.211 48.3486 79.4843 48.3486 81.055Z" fill="white"/>
<path d="M55.4587 81.055C55.4587 82.6258 54.1854 83.8991 52.6147 83.8991C51.044 83.8991 49.7706 82.6258 49.7706 81.055C49.7706 79.4843 51.044 78.211 52.6147 78.211C54.1854 78.211 55.4587 79.4843 55.4587 81.055Z" fill="white"/>
<path d="M62.5688 81.055C62.5688 82.6258 61.2955 83.8991 59.7248 83.8991C58.1541 83.8991 56.8807 82.6258 56.8807 81.055C56.8807 79.4843 58.1541 78.211 59.7248 78.211C61.2955 78.211 62.5688 79.4843 62.5688 81.055Z" fill="white"/>
<path d="M69.6789 81.055C69.6789 82.6258 68.4056 83.8991 66.8349 83.8991C65.2641 83.8991 63.9908 82.6258 63.9908 81.055C63.9908 79.4843 65.2641 78.211 66.8349 78.211C68.4056 78.211 69.6789 79.4843 69.6789 81.055Z" fill="white"/>
<path d="M76.789 81.055C76.789 82.6258 75.5157 83.8991 73.945 83.8991C72.3742 83.8991 71.1009 82.6258 71.1009 81.055C71.1009 79.4843 72.3742 78.211 73.945 78.211C75.5157 78.211 76.789 79.4843 76.789 81.055Z" fill="white"/>
<path d="M83.8991 81.055C83.8991 82.6258 82.6258 83.8991 81.055 83.8991C79.4843 83.8991 78.211 82.6258 78.211 81.055C78.211 79.4843 79.4843 78.211 81.055 78.211C82.6258 78.211 83.8991 79.4843 83.8991 81.055Z" fill="white"/>
<path d="M91.0092 81.055C91.0092 82.6258 89.7359 83.8991 88.1651 83.8991C86.5944 83.8991 85.3211 82.6258 85.3211 81.055C85.3211 79.4843 86.5944 78.211 88.1651 78.211C89.7359 78.211 91.0092 79.4843 91.0092 81.055Z" fill="white"/>
<path d="M98.1193 81.055C98.1193 82.6258 96.8459 83.8991 95.2752 83.8991C93.7045 83.8991 92.4312 82.6258 92.4312 81.055C92.4312 79.4843 93.7045 78.211 95.2752 78.211C96.8459 78.211 98.1193 79.4843 98.1193 81.055Z" fill="white"/>
<path d="M105.229 81.055C105.229 82.6258 103.956 83.8991 102.385 83.8991C100.815 83.8991 99.5413 82.6258 99.5413 81.055C99.5413 79.4843 100.815 78.211 102.385 78.211C103.956 78.211 105.229 79.4843 105.229 81.055Z" fill="white"/>
<path d="M112.339 81.055C112.339 82.6258 111.066 83.8991 109.495 83.8991C107.925 83.8991 106.651 82.6258 106.651 81.055C106.651 79.4843 107.925 78.211 109.495 78.211C111.066 78.211 112.339 79.4843 112.339 81.055Z" fill="white"/>
<path d="M119.45 81.055C119.45 82.6258 118.176 83.8991 116.606 83.8991C115.035 83.8991 113.761 82.6258 113.761 81.055C113.761 79.4843 115.035 78.211 116.606 78.211C118.176 78.211 119.45 79.4843 119.45 81.055Z" fill="white"/>
<path d="M126.56 81.055C126.56 82.6258 125.286 83.8991 123.716 83.8991C122.145 83.8991 120.872 82.6258 120.872 81.055C120.872 79.4843 122.145 78.211 123.716 78.211C125.286 78.211 126.56 79.4843 126.56 81.055Z" fill="white"/>
<path d="M133.67 81.055C133.67 82.6258 132.396 83.8991 130.826 83.8991C129.255 83.8991 127.982 82.6258 127.982 81.055C127.982 79.4843 129.255 78.211 130.826 78.211C132.396 78.211 133.67 79.4843 133.67 81.055Z" fill="white"/>
<path d="M140.78 81.055C140.78 82.6258 139.506 83.8991 137.936 83.8991C136.365 83.8991 135.092 82.6258 135.092 81.055C135.092 79.4843 136.365 78.211 137.936 78.211C139.506 78.211 140.78 79.4843 140.78 81.055Z" fill="white"/>
<path d="M147.89 81.055C147.89 82.6258 146.617 83.8991 145.046 83.8991C143.475 83.8991 142.202 82.6258 142.202 81.055C142.202 79.4843 143.475 78.211 145.046 78.211C146.617 78.211 147.89 79.4843 147.89 81.055Z" fill="white"/>
<path d="M5.68807 77.3202C5.68807 78.8909 4.41476 80.1642 2.84404 80.1642C1.27332 80.1642 0 78.8909 0 77.3202C0 75.7495 1.27332 74.4762 2.84404 74.4762C4.41476 74.4762 5.68807 75.7495 5.68807 77.3202Z" fill="white"/>
<path d="M155 77.3202C155 78.8909 153.727 80.1642 152.156 80.1642C150.585 80.1642 149.312 78.8909 149.312 77.3202C149.312 75.7495 150.585 74.4762 152.156 74.4762C153.727 74.4762 155 75.7495 155 77.3202Z" fill="white"/>
<path d="M12.7982 73.945C12.7982 75.5157 11.5248 76.789 9.95413 76.789C8.38341 76.789 7.11009 75.5157 7.11009 73.945C7.11009 72.3742 8.38341 71.1009 9.95413 71.1009C11.5248 71.1009 12.7982 72.3742 12.7982 73.945Z" fill="white"/>
<path d="M19.9083 73.945C19.9083 75.5157 18.6349 76.789 17.0642 76.789C15.4935 76.789 14.2202 75.5157 14.2202 73.945C14.2202 72.3742 15.4935 71.1009 17.0642 71.1009C18.6349 71.1009 19.9083 72.3742 19.9083 73.945Z" fill="white"/>
<path d="M27.0183 73.945C27.0183 75.5157 25.745 76.789 24.1743 76.789C22.6036 76.789 21.3303 75.5157 21.3303 73.945C21.3303 72.3742 22.6036 71.1009 24.1743 71.1009C25.745 71.1009 27.0183 72.3742 27.0183 73.945Z" fill="white"/>
<path d="M34.1284 73.945C34.1284 75.5157 32.8551 76.789 31.2844 76.789C29.7137 76.789 28.4404 75.5157 28.4404 73.945C28.4404 72.3742 29.7137 71.1009 31.2844 71.1009C32.8551 71.1009 34.1284 72.3742 34.1284 73.945Z" fill="white"/>
<path d="M41.2385 73.945C41.2385 75.5157 39.9652 76.789 38.3945 76.789C36.8238 76.789 35.5505 75.5157 35.5505 73.945C35.5505 72.3742 36.8238 71.1009 38.3945 71.1009C39.9652 71.1009 41.2385 72.3742 41.2385 73.945Z" fill="white"/>
<path d="M48.3486 73.945C48.3486 75.5157 47.0753 76.789 45.5046 76.789C43.9339 76.789 42.6605 75.5157 42.6605 73.945C42.6605 72.3742 43.9339 71.1009 45.5046 71.1009C47.0753 71.1009 48.3486 72.3742 48.3486 73.945Z" fill="white"/>
<path d="M55.4587 73.945C55.4587 75.5157 54.1854 76.789 52.6147 76.789C51.044 76.789 49.7706 75.5157 49.7706 73.945C49.7706 72.3742 51.044 71.1009 52.6147 71.1009C54.1854 71.1009 55.4587 72.3742 55.4587 73.945Z" fill="white"/>
<path d="M62.5688 73.945C62.5688 75.5157 61.2955 76.789 59.7248 76.789C58.1541 76.789 56.8807 75.5157 56.8807 73.945C56.8807 72.3742 58.1541 71.1009 59.7248 71.1009C61.2955 71.1009 62.5688 72.3742 62.5688 73.945Z" fill="white"/>
<path d="M69.6789 73.945C69.6789 75.5157 68.4056 76.789 66.8349 76.789C65.2641 76.789 63.9908 75.5157 63.9908 73.945C63.9908 72.3742 65.2641 71.1009 66.8349 71.1009C68.4056 71.1009 69.6789 72.3742 69.6789 73.945Z" fill="white"/>
<path d="M76.789 73.945C76.789 75.5157 75.5157 76.789 73.945 76.789C72.3742 76.789 71.1009 75.5157 71.1009 73.945C71.1009 72.3742 72.3742 71.1009 73.945 71.1009C75.5157 71.1009 76.789 72.3742 76.789 73.945Z" fill="white"/>
<path d="M83.8991 73.945C83.8991 75.5157 82.6258 76.789 81.055 76.789C79.4843 76.789 78.211 75.5157 78.211 73.945C78.211 72.3742 79.4843 71.1009 81.055 71.1009C82.6258 71.1009 83.8991 72.3742 83.8991 73.945Z" fill="white"/>
<path d="M91.0092 73.945C91.0092 75.5157 89.7359 76.789 88.1651 76.789C86.5944 76.789 85.3211 75.5157 85.3211 73.945C85.3211 72.3742 86.5944 71.1009 88.1651 71.1009C89.7359 71.1009 91.0092 72.3742 91.0092 73.945Z" fill="white"/>
<path d="M98.1193 73.945C98.1193 75.5157 96.8459 76.789 95.2752 76.789C93.7045 76.789 92.4312 75.5157 92.4312 73.945C92.4312 72.3742 93.7045 71.1009 95.2752 71.1009C96.8459 71.1009 98.1193 72.3742 98.1193 73.945Z" fill="white"/>
<path d="M105.229 73.945C105.229 75.5157 103.956 76.789 102.385 76.789C100.815 76.789 99.5413 75.5157 99.5413 73.945C99.5413 72.3742 100.815 71.1009 102.385 71.1009C103.956 71.1009 105.229 72.3742 105.229 73.945Z" fill="white"/>
<path d="M112.339 73.945C112.339 75.5157 111.066 76.789 109.495 76.789C107.925 76.789 106.651 75.5157 106.651 73.945C106.651 72.3742 107.925 71.1009 109.495 71.1009C111.066 71.1009 112.339 72.3742 112.339 73.945Z" fill="white"/>
<path d="M119.45 73.945C119.45 75.5157 118.176 76.789 116.606 76.789C115.035 76.789 113.761 75.5157 113.761 73.945C113.761 72.3742 115.035 71.1009 116.606 71.1009C118.176 71.1009 119.45 72.3742 119.45 73.945Z" fill="white"/>
<path d="M126.56 73.945C126.56 75.5157 125.286 76.789 123.716 76.789C122.145 76.789 120.872 75.5157 120.872 73.945C120.872 72.3742 122.145 71.1009 123.716 71.1009C125.286 71.1009 126.56 72.3742 126.56 73.945Z" fill="white"/>
<path d="M133.67 73.945C133.67 75.5157 132.396 76.789 130.826 76.789C129.255 76.789 127.982 75.5157 127.982 73.945C127.982 72.3742 129.255 71.1009 130.826 71.1009C132.396 71.1009 133.67 72.3742 133.67 73.945Z" fill="white"/>
<path d="M140.78 73.945C140.78 75.5157 139.506 76.789 137.936 76.789C136.365 76.789 135.092 75.5157 135.092 73.945C135.092 72.3742 136.365 71.1009 137.936 71.1009C139.506 71.1009 140.78 72.3742 140.78 73.945Z" fill="white"/>
<path d="M147.89 73.945C147.89 75.5157 146.617 76.789 145.046 76.789C143.475 76.789 142.202 75.5157 142.202 73.945C142.202 72.3742 143.475 71.1009 145.046 71.1009C146.617 71.1009 147.89 72.3742 147.89 73.945Z" fill="white"/>
<path d="M19.9083 66.8349C19.9083 68.4056 18.6349 69.6789 17.0642 69.6789C15.4935 69.6789 14.2202 68.4056 14.2202 66.8349C14.2202 65.2641 15.4935 63.9908 17.0642 63.9908C18.6349 63.9908 19.9083 65.2641 19.9083 66.8349Z" fill="white"/>
<path d="M27.0183 66.8349C27.0183 68.4056 25.745 69.6789 24.1743 69.6789C22.6036 69.6789 21.3303 68.4056 21.3303 66.8349C21.3303 65.2641 22.6036 63.9908 24.1743 63.9908C25.745 63.9908 27.0183 65.2641 27.0183 66.8349Z" fill="white"/>
<path d="M34.1284 66.8349C34.1284 68.4056 32.8551 69.6789 31.2844 69.6789C29.7137 69.6789 28.4404 68.4056 28.4404 66.8349C28.4404 65.2641 29.7137 63.9908 31.2844 63.9908C32.8551 63.9908 34.1284 65.2641 34.1284 66.8349Z" fill="white"/>
<path d="M41.2385 66.8349C41.2385 68.4056 39.9652 69.6789 38.3945 69.6789C36.8238 69.6789 35.5505 68.4056 35.5505 66.8349C35.5505 65.2641 36.8238 63.9908 38.3945 63.9908C39.9652 63.9908 41.2385 65.2641 41.2385 66.8349Z" fill="white"/>
<path d="M48.3486 66.8349C48.3486 68.4056 47.0753 69.6789 45.5046 69.6789C43.9339 69.6789 42.6605 68.4056 42.6605 66.8349C42.6605 65.2641 43.9339 63.9908 45.5046 63.9908C47.0753 63.9908 48.3486 65.2641 48.3486 66.8349Z" fill="white"/>
<path d="M55.4587 66.8349C55.4587 68.4056 54.1854 69.6789 52.6147 69.6789C51.044 69.6789 49.7706 68.4056 49.7706 66.8349C49.7706 65.2641 51.044 63.9908 52.6147 63.9908C54.1854 63.9908 55.4587 65.2641 55.4587 66.8349Z" fill="white"/>
<path d="M62.5688 66.8349C62.5688 68.4056 61.2955 69.6789 59.7248 69.6789C58.1541 69.6789 56.8807 68.4056 56.8807 66.8349C56.8807 65.2641 58.1541 63.9908 59.7248 63.9908C61.2955 63.9908 62.5688 65.2641 62.5688 66.8349Z" fill="white"/>
<path d="M69.6789 66.8349C69.6789 68.4056 68.4056 69.6789 66.8349 69.6789C65.2641 69.6789 63.9908 68.4056 63.9908 66.8349C63.9908 65.2641 65.2641 63.9908 66.8349 63.9908C68.4056 63.9908 69.6789 65.2641 69.6789 66.8349Z" fill="white"/>
<path d="M76.789 66.8349C76.789 68.4056 75.5157 69.6789 73.945 69.6789C72.3742 69.6789 71.1009 68.4056 71.1009 66.8349C71.1009 65.2641 72.3742 63.9908 73.945 63.9908C75.5157 63.9908 76.789 65.2641 76.789 66.8349Z" fill="white"/>
<path d="M83.8991 66.8349C83.8991 68.4056 82.6258 69.6789 81.055 69.6789C79.4843 69.6789 78.211 68.4056 78.211 66.8349C78.211 65.2641 79.4843 63.9908 81.055 63.9908C82.6258 63.9908 83.8991 65.2641 83.8991 66.8349Z" fill="white"/>
<path d="M91.0092 66.8349C91.0092 68.4056 89.7359 69.6789 88.1651 69.6789C86.5944 69.6789 85.3211 68.4056 85.3211 66.8349C85.3211 65.2641 86.5944 63.9908 88.1651 63.9908C89.7359 63.9908 91.0092 65.2641 91.0092 66.8349Z" fill="white"/>
<path d="M98.1193 66.8349C98.1193 68.4056 96.8459 69.6789 95.2752 69.6789C93.7045 69.6789 92.4312 68.4056 92.4312 66.8349C92.4312 65.2641 93.7045 63.9908 95.2752 63.9908C96.8459 63.9908 98.1193 65.2641 98.1193 66.8349Z" fill="white"/>
<path d="M105.229 66.8349C105.229 68.4056 103.956 69.6789 102.385 69.6789C100.815 69.6789 99.5413 68.4056 99.5413 66.8349C99.5413 65.2641 100.815 63.9908 102.385 63.9908C103.956 63.9908 105.229 65.2641 105.229 66.8349Z" fill="white"/>
<path d="M112.339 66.8349C112.339 68.4056 111.066 69.6789 109.495 69.6789C107.925 69.6789 106.651 68.4056 106.651 66.8349C106.651 65.2641 107.925 63.9908 109.495 63.9908C111.066 63.9908 112.339 65.2641 112.339 66.8349Z" fill="white"/>
<path d="M119.45 66.8349C119.45 68.4056 118.176 69.6789 116.606 69.6789C115.035 69.6789 113.761 68.4056 113.761 66.8349C113.761 65.2641 115.035 63.9908 116.606 63.9908C118.176 63.9908 119.45 65.2641 119.45 66.8349Z" fill="white"/>
<path d="M126.56 66.8349C126.56 68.4056 125.286 69.6789 123.716 69.6789C122.145 69.6789 120.872 68.4056 120.872 66.8349C120.872 65.2641 122.145 63.9908 123.716 63.9908C125.286 63.9908 126.56 65.2641 126.56 66.8349Z" fill="white"/>
<path d="M133.67 66.8349C133.67 68.4056 132.396 69.6789 130.826 69.6789C129.255 69.6789 127.982 68.4056 127.982 66.8349C127.982 65.2641 129.255 63.9908 130.826 63.9908C132.396 63.9908 133.67 65.2641 133.67 66.8349Z" fill="white"/>
<path d="M140.78 66.8349C140.78 68.4056 139.506 69.6789 137.936 69.6789C136.365 69.6789 135.092 68.4056 135.092 66.8349C135.092 65.2641 136.365 63.9908 137.936 63.9908C139.506 63.9908 140.78 65.2641 140.78 66.8349Z" fill="white"/>
<path d="M41.2385 59.7248C41.2385 61.2955 39.9652 62.5688 38.3945 62.5688C36.8238 62.5688 35.5505 61.2955 35.5505 59.7248C35.5505 58.1541 36.8238 56.8807 38.3945 56.8807C39.9652 56.8807 41.2385 58.1541 41.2385 59.7248Z" fill="white"/>
<path d="M48.3486 59.7248C48.3486 61.2955 47.0753 62.5688 45.5046 62.5688C43.9339 62.5688 42.6605 61.2955 42.6605 59.7248C42.6605 58.1541 43.9339 56.8807 45.5046 56.8807C47.0753 56.8807 48.3486 58.1541 48.3486 59.7248Z" fill="white"/>
<path d="M55.4587 59.7248C55.4587 61.2955 54.1854 62.5688 52.6147 62.5688C51.044 62.5688 49.7706 61.2955 49.7706 59.7248C49.7706 58.1541 51.044 56.8807 52.6147 56.8807C54.1854 56.8807 55.4587 58.1541 55.4587 59.7248Z" fill="white"/>
<path d="M62.5688 59.7248C62.5688 61.2955 61.2955 62.5688 59.7248 62.5688C58.1541 62.5688 56.8807 61.2955 56.8807 59.7248C56.8807 58.1541 58.1541 56.8807 59.7248 56.8807C61.2955 56.8807 62.5688 58.1541 62.5688 59.7248Z" fill="white"/>
<path d="M69.6789 59.7248C69.6789 61.2955 68.4056 62.5688 66.8349 62.5688C65.2641 62.5688 63.9908 61.2955 63.9908 59.7248C63.9908 58.1541 65.2641 56.8807 66.8349 56.8807C68.4056 56.8807 69.6789 58.1541 69.6789 59.7248Z" fill="white"/>
<path d="M91.0092 59.7248C91.0092 61.2955 89.7359 62.5688 88.1651 62.5688C86.5944 62.5688 85.3211 61.2955 85.3211 59.7248C85.3211 58.1541 86.5944 56.8807 88.1651 56.8807C89.7359 56.8807 91.0092 58.1541 91.0092 59.7248Z" fill="white"/>
<path d="M98.1193 59.7248C98.1193 61.2955 96.8459 62.5688 95.2752 62.5688C93.7045 62.5688 92.4312 61.2955 92.4312 59.7248C92.4312 58.1541 93.7045 56.8807 95.2752 56.8807C96.8459 56.8807 98.1193 58.1541 98.1193 59.7248Z" fill="white"/>
<path d="M105.229 59.7248C105.229 61.2955 103.956 62.5688 102.385 62.5688C100.815 62.5688 99.5413 61.2955 99.5413 59.7248C99.5413 58.1541 100.815 56.8807 102.385 56.8807C103.956 56.8807 105.229 58.1541 105.229 59.7248Z" fill="white"/>
<path d="M112.339 59.7248C112.339 61.2955 111.066 62.5688 109.495 62.5688C107.925 62.5688 106.651 61.2955 106.651 59.7248C106.651 58.1541 107.925 56.8807 109.495 56.8807C111.066 56.8807 112.339 58.1541 112.339 59.7248Z" fill="white"/>
<path d="M119.45 59.7248C119.45 61.2955 118.176 62.5688 116.606 62.5688C115.035 62.5688 113.761 61.2955 113.761 59.7248C113.761 58.1541 115.035 56.8807 116.606 56.8807C118.176 56.8807 119.45 58.1541 119.45 59.7248Z" fill="white"/>
<path d="M34.1284 52.6147C34.1284 54.1854 32.8551 55.4587 31.2844 55.4587C29.7137 55.4587 28.4404 54.1854 28.4404 52.6147C28.4404 51.044 29.7137 49.7706 31.2844 49.7706C32.8551 49.7706 34.1284 51.044 34.1284 52.6147Z" fill="white"/>
<path d="M41.2385 52.6147C41.2385 54.1854 39.9652 55.4587 38.3945 55.4587C36.8238 55.4587 35.5505 54.1854 35.5505 52.6147C35.5505 51.044 36.8238 49.7706 38.3945 49.7706C39.9652 49.7706 41.2385 51.044 41.2385 52.6147Z" fill="white"/>
<path d="M48.3486 52.6147C48.3486 54.1854 47.0753 55.4587 45.5046 55.4587C43.9339 55.4587 42.6605 54.1854 42.6605 52.6147C42.6605 51.044 43.9339 49.7706 45.5046 49.7706C47.0753 49.7706 48.3486 51.044 48.3486 52.6147Z" fill="white"/>
<path d="M55.4587 52.6147C55.4587 54.1854 54.1854 55.4587 52.6147 55.4587C51.044 55.4587 49.7706 54.1854 49.7706 52.6147C49.7706 51.044 51.044 49.7706 52.6147 49.7706C54.1854 49.7706 55.4587 51.044 55.4587 52.6147Z" fill="white"/>
<path d="M62.5688 52.6147C62.5688 54.1854 61.2955 55.4587 59.7248 55.4587C58.1541 55.4587 56.8807 54.1854 56.8807 52.6147C56.8807 51.044 58.1541 49.7706 59.7248 49.7706C61.2955 49.7706 62.5688 51.044 62.5688 52.6147Z" fill="white"/>
<path d="M98.1193 52.6147C98.1193 54.1854 96.8459 55.4587 95.2752 55.4587C93.7045 55.4587 92.4312 54.1854 92.4312 52.6147C92.4312 51.044 93.7045 49.7706 95.2752 49.7706C96.8459 49.7706 98.1193 51.044 98.1193 52.6147Z" fill="white"/>
<path d="M105.229 52.6147C105.229 54.1854 103.956 55.4587 102.385 55.4587C100.815 55.4587 99.5413 54.1854 99.5413 52.6147C99.5413 51.044 100.815 49.7706 102.385 49.7706C103.956 49.7706 105.229 51.044 105.229 52.6147Z" fill="white"/>
<path d="M112.339 52.6147C112.339 54.1854 111.066 55.4587 109.495 55.4587C107.925 55.4587 106.651 54.1854 106.651 52.6147C106.651 51.044 107.925 49.7706 109.495 49.7706C111.066 49.7706 112.339 51.044 112.339 52.6147Z" fill="white"/>
<path d="M119.45 52.6147C119.45 54.1854 118.176 55.4587 116.606 55.4587C115.035 55.4587 113.761 54.1854 113.761 52.6147C113.761 51.044 115.035 49.7706 116.606 49.7706C118.176 49.7706 119.45 51.044 119.45 52.6147Z" fill="white"/>
<path d="M126.56 52.6147C126.56 54.1854 125.286 55.4587 123.716 55.4587C122.145 55.4587 120.872 54.1854 120.872 52.6147C120.872 51.044 122.145 49.7706 123.716 49.7706C125.286 49.7706 126.56 51.044 126.56 52.6147Z" fill="white"/>
<path d="M27.0183 45.5046C27.0183 47.0753 25.745 48.3486 24.1743 48.3486C22.6036 48.3486 21.3303 47.0753 21.3303 45.5046C21.3303 43.9339 22.6036 42.6605 24.1743 42.6605C25.745 42.6605 27.0183 43.9339 27.0183 45.5046Z" fill="white"/>
<path d="M34.1284 45.5046C34.1284 47.0753 32.8551 48.3486 31.2844 48.3486C29.7137 48.3486 28.4404 47.0753 28.4404 45.5046C28.4404 43.9339 29.7137 42.6605 31.2844 42.6605C32.8551 42.6605 34.1284 43.9339 34.1284 45.5046Z" fill="white"/>
<path d="M41.2385 45.5046C41.2385 47.0753 39.9652 48.3486 38.3945 48.3486C36.8238 48.3486 35.5505 47.0753 35.5505 45.5046C35.5505 43.9339 36.8238 42.6605 38.3945 42.6605C39.9652 42.6605 41.2385 43.9339 41.2385 45.5046Z" fill="white"/>
<path d="M48.3486 45.5046C48.3486 47.0753 47.0753 48.3486 45.5046 48.3486C43.9339 48.3486 42.6605 47.0753 42.6605 45.5046C42.6605 43.9339 43.9339 42.6605 45.5046 42.6605C47.0753 42.6605 48.3486 43.9339 48.3486 45.5046Z" fill="white"/>
<path d="M55.4587 45.5046C55.4587 47.0753 54.1854 48.3486 52.6147 48.3486C51.044 48.3486 49.7706 47.0753 49.7706 45.5046C49.7706 43.9339 51.044 42.6605 52.6147 42.6605C54.1854 42.6605 55.4587 43.9339 55.4587 45.5046Z" fill="white"/>
<path d="M62.5688 45.5046C62.5688 47.0753 61.2955 48.3486 59.7248 48.3486C58.1541 48.3486 56.8807 47.0753 56.8807 45.5046C56.8807 43.9339 58.1541 42.6605 59.7248 42.6605C61.2955 42.6605 62.5688 43.9339 62.5688 45.5046Z" fill="white"/>
<path d="M98.1193 45.5046C98.1193 47.0753 96.8459 48.3486 95.2752 48.3486C93.7045 48.3486 92.4312 47.0753 92.4312 45.5046C92.4312 43.9339 93.7045 42.6605 95.2752 42.6605C96.8459 42.6605 98.1193 43.9339 98.1193 45.5046Z" fill="white"/>
<path d="M105.229 45.5046C105.229 47.0753 103.956 48.3486 102.385 48.3486C100.815 48.3486 99.5413 47.0753 99.5413 45.5046C99.5413 43.9339 100.815 42.6605 102.385 42.6605C103.956 42.6605 105.229 43.9339 105.229 45.5046Z" fill="white"/>
<path d="M112.339 45.5046C112.339 47.0753 111.066 48.3486 109.495 48.3486C107.925 48.3486 106.651 47.0753 106.651 45.5046C106.651 43.9339 107.925 42.6605 109.495 42.6605C111.066 42.6605 112.339 43.9339 112.339 45.5046Z" fill="white"/>
<path d="M119.45 45.5046C119.45 47.0753 118.176 48.3486 116.606 48.3486C115.035 48.3486 113.761 47.0753 113.761 45.5046C113.761 43.9339 115.035 42.6605 116.606 42.6605C118.176 42.6605 119.45 43.9339 119.45 45.5046Z" fill="white"/>
<path d="M126.56 45.5046C126.56 47.0753 125.286 48.3486 123.716 48.3486C122.145 48.3486 120.872 47.0753 120.872 45.5046C120.872 43.9339 122.145 42.6605 123.716 42.6605C125.286 42.6605 126.56 43.9339 126.56 45.5046Z" fill="white"/>
<path d="M133.67 45.5046C133.67 47.0753 132.396 48.3486 130.826 48.3486C129.255 48.3486 127.982 47.0753 127.982 45.5046C127.982 43.9339 129.255 42.6605 130.826 42.6605C132.396 42.6605 133.67 43.9339 133.67 45.5046Z" fill="white"/>
<path d="M19.9083 38.3945C19.9083 39.9652 18.6349 41.2385 17.0642 41.2385C15.4935 41.2385 14.2202 39.9652 14.2202 38.3945C14.2202 36.8238 15.4935 35.5505 17.0642 35.5505C18.6349 35.5505 19.9083 36.8238 19.9083 38.3945Z" fill="white"/>
<path d="M27.0183 38.3945C27.0183 39.9652 25.745 41.2385 24.1743 41.2385C22.6036 41.2385 21.3303 39.9652 21.3303 38.3945C21.3303 36.8238 22.6036 35.5505 24.1743 35.5505C25.745 35.5505 27.0183 36.8238 27.0183 38.3945Z" fill="white"/>
<path d="M34.1284 38.3945C34.1284 39.9652 32.8551 41.2385 31.2844 41.2385C29.7137 41.2385 28.4404 39.9652 28.4404 38.3945C28.4404 36.8238 29.7137 35.5505 31.2844 35.5505C32.8551 35.5505 34.1284 36.8238 34.1284 38.3945Z" fill="white"/>
<path d="M41.2385 38.3945C41.2385 39.9652 39.9652 41.2385 38.3945 41.2385C36.8238 41.2385 35.5505 39.9652 35.5505 38.3945C35.5505 36.8238 36.8238 35.5505 38.3945 35.5505C39.9652 35.5505 41.2385 36.8238 41.2385 38.3945Z" fill="white"/>
<path d="M48.3486 38.3945C48.3486 39.9652 47.0753 41.2385 45.5046 41.2385C43.9339 41.2385 42.6605 39.9652 42.6605 38.3945C42.6605 36.8238 43.9339 35.5505 45.5046 35.5505C47.0753 35.5505 48.3486 36.8238 48.3486 38.3945Z" fill="white"/>
<path d="M55.4587 38.3945C55.4587 39.9652 54.1854 41.2385 52.6147 41.2385C51.044 41.2385 49.7706 39.9652 49.7706 38.3945C49.7706 36.8238 51.044 35.5505 52.6147 35.5505C54.1854 35.5505 55.4587 36.8238 55.4587 38.3945Z" fill="white"/>
<path d="M105.229 38.3945C105.229 39.9652 103.956 41.2385 102.385 41.2385C100.815 41.2385 99.5413 39.9652 99.5413 38.3945C99.5413 36.8238 100.815 35.5505 102.385 35.5505C103.956 35.5505 105.229 36.8238 105.229 38.3945Z" fill="white"/>
<path d="M112.339 38.3945C112.339 39.9652 111.066 41.2385 109.495 41.2385C107.925 41.2385 106.651 39.9652 106.651 38.3945C106.651 36.8238 107.925 35.5505 109.495 35.5505C111.066 35.5505 112.339 36.8238 112.339 38.3945Z" fill="white"/>
<path d="M119.45 38.3945C119.45 39.9652 118.176 41.2385 116.606 41.2385C115.035 41.2385 113.761 39.9652 113.761 38.3945C113.761 36.8238 115.035 35.5505 116.606 35.5505C118.176 35.5505 119.45 36.8238 119.45 38.3945Z" fill="white"/>
<path d="M126.56 38.3945C126.56 39.9652 125.286 41.2385 123.716 41.2385C122.145 41.2385 120.872 39.9652 120.872 38.3945C120.872 36.8238 122.145 35.5505 123.716 35.5505C125.286 35.5505 126.56 36.8238 126.56 38.3945Z" fill="white"/>
<path d="M133.67 38.3945C133.67 39.9652 132.396 41.2385 130.826 41.2385C129.255 41.2385 127.982 39.9652 127.982 38.3945C127.982 36.8238 129.255 35.5505 130.826 35.5505C132.396 35.5505 133.67 36.8238 133.67 38.3945Z" fill="white"/>
<path d="M140.78 38.3945C140.78 39.9652 139.506 41.2385 137.936 41.2385C136.365 41.2385 135.092 39.9652 135.092 38.3945C135.092 36.8238 136.365 35.5505 137.936 35.5505C139.506 35.5505 140.78 36.8238 140.78 38.3945Z" fill="white"/>
<path d="M19.9083 31.2844C19.9083 32.8551 18.6349 34.1284 17.0642 34.1284C15.4935 34.1284 14.2202 32.8551 14.2202 31.2844C14.2202 29.7137 15.4935 28.4404 17.0642 28.4404C18.6349 28.4404 19.9083 29.7137 19.9083 31.2844Z" fill="white"/>
<path d="M27.0183 31.2844C27.0183 32.8551 25.745 34.1284 24.1743 34.1284C22.6036 34.1284 21.3303 32.8551 21.3303 31.2844C21.3303 29.7137 22.6036 28.4404 24.1743 28.4404C25.745 28.4404 27.0183 29.7137 27.0183 31.2844Z" fill="white"/>
<path d="M34.1284 31.2844C34.1284 32.8551 32.8551 34.1284 31.2844 34.1284C29.7137 34.1284 28.4404 32.8551 28.4404 31.2844C28.4404 29.7137 29.7137 28.4404 31.2844 28.4404C32.8551 28.4404 34.1284 29.7137 34.1284 31.2844Z" fill="white"/>
<path d="M41.2385 31.2844C41.2385 32.8551 39.9652 34.1284 38.3945 34.1284C36.8238 34.1284 35.5505 32.8551 35.5505 31.2844C35.5505 29.7137 36.8238 28.4404 38.3945 28.4404C39.9652 28.4404 41.2385 29.7137 41.2385 31.2844Z" fill="white"/>
<path d="M48.3486 31.2844C48.3486 32.8551 47.0753 34.1284 45.5046 34.1284C43.9339 34.1284 42.6605 32.8551 42.6605 31.2844C42.6605 29.7137 43.9339 28.4404 45.5046 28.4404C47.0753 28.4404 48.3486 29.7137 48.3486 31.2844Z" fill="white"/>
<path d="M112.339 31.2844C112.339 32.8551 111.066 34.1284 109.495 34.1284C107.925 34.1284 106.651 32.8551 106.651 31.2844C106.651 29.7137 107.925 28.4404 109.495 28.4404C111.066 28.4404 112.339 29.7137 112.339 31.2844Z" fill="white"/>
<path d="M119.45 31.2844C119.45 32.8551 118.176 34.1284 116.606 34.1284C115.035 34.1284 113.761 32.8551 113.761 31.2844C113.761 29.7137 115.035 28.4404 116.606 28.4404C118.176 28.4404 119.45 29.7137 119.45 31.2844Z" fill="white"/>
<path d="M126.56 31.2844C126.56 32.8551 125.286 34.1284 123.716 34.1284C122.145 34.1284 120.872 32.8551 120.872 31.2844C120.872 29.7137 122.145 28.4404 123.716 28.4404C125.286 28.4404 126.56 29.7137 126.56 31.2844Z" fill="white"/>
<path d="M133.67 31.2844C133.67 32.8551 132.396 34.1284 130.826 34.1284C129.255 34.1284 127.982 32.8551 127.982 31.2844C127.982 29.7137 129.255 28.4404 130.826 28.4404C132.396 28.4404 133.67 29.7137 133.67 31.2844Z" fill="white"/>
<path d="M140.78 31.2844C140.78 32.8551 139.506 34.1284 137.936 34.1284C136.365 34.1284 135.092 32.8551 135.092 31.2844C135.092 29.7137 136.365 28.4404 137.936 28.4404C139.506 28.4404 140.78 29.7137 140.78 31.2844Z" fill="white"/>
<path d="M19.9083 24.1743C19.9083 25.745 18.6349 27.0183 17.0642 27.0183C15.4935 27.0183 14.2202 25.745 14.2202 24.1743C14.2202 22.6036 15.4935 21.3303 17.0642 21.3303C18.6349 21.3303 19.9083 22.6036 19.9083 24.1743Z" fill="white"/>
<path d="M27.0183 24.1743C27.0183 25.745 25.745 27.0183 24.1743 27.0183C22.6036 27.0183 21.3303 25.745 21.3303 24.1743C21.3303 22.6036 22.6036 21.3303 24.1743 21.3303C25.745 21.3303 27.0183 22.6036 27.0183 24.1743Z" fill="white"/>
<path d="M34.1284 24.1743C34.1284 25.745 32.8551 27.0183 31.2844 27.0183C29.7137 27.0183 28.4404 25.745 28.4404 24.1743C28.4404 22.6036 29.7137 21.3303 31.2844 21.3303C32.8551 21.3303 34.1284 22.6036 34.1284 24.1743Z" fill="white"/>
<path d="M41.2385 24.1743C41.2385 25.745 39.9652 27.0183 38.3945 27.0183C36.8238 27.0183 35.5505 25.745 35.5505 24.1743C35.5505 22.6036 36.8238 21.3303 38.3945 21.3303C39.9652 21.3303 41.2385 22.6036 41.2385 24.1743Z" fill="white"/>
<path d="M119.45 24.1743C119.45 25.745 118.176 27.0183 116.606 27.0183C115.035 27.0183 113.761 25.745 113.761 24.1743C113.761 22.6036 115.035 21.3303 116.606 21.3303C118.176 21.3303 119.45 22.6036 119.45 24.1743Z" fill="white"/>
<path d="M126.56 24.1743C126.56 25.745 125.286 27.0183 123.716 27.0183C122.145 27.0183 120.872 25.745 120.872 24.1743C120.872 22.6036 122.145 21.3303 123.716 21.3303C125.286 21.3303 126.56 22.6036 126.56 24.1743Z" fill="white"/>
<path d="M133.67 24.1743C133.67 25.745 132.396 27.0183 130.826 27.0183C129.255 27.0183 127.982 25.745 127.982 24.1743C127.982 22.6036 129.255 21.3303 130.826 21.3303C132.396 21.3303 133.67 22.6036 133.67 24.1743Z" fill="white"/>
<path d="M140.78 24.1743C140.78 25.745 139.506 27.0183 137.936 27.0183C136.365 27.0183 135.092 25.745 135.092 24.1743C135.092 22.6036 136.365 21.3303 137.936 21.3303C139.506 21.3303 140.78 22.6036 140.78 24.1743Z" fill="white"/>
<path d="M19.9083 17.0642C19.9083 18.6349 18.6349 19.9083 17.0642 19.9083C15.4935 19.9083 14.2202 18.6349 14.2202 17.0642C14.2202 15.4935 15.4935 14.2202 17.0642 14.2202C18.6349 14.2202 19.9083 15.4935 19.9083 17.0642Z" fill="white"/>
<path d="M27.0183 17.0642C27.0183 18.6349 25.745 19.9083 24.1743 19.9083C22.6036 19.9083 21.3303 18.6349 21.3303 17.0642C21.3303 15.4935 22.6036 14.2202 24.1743 14.2202C25.745 14.2202 27.0183 15.4935 27.0183 17.0642Z" fill="white"/>
<path d="M34.1284 17.0642C34.1284 18.6349 32.8551 19.9083 31.2844 19.9083C29.7137 19.9083 28.4404 18.6349 28.4404 17.0642C28.4404 15.4935 29.7137 14.2202 31.2844 14.2202C32.8551 14.2202 34.1284 15.4935 34.1284 17.0642Z" fill="white"/>
<path d="M126.56 17.0642C126.56 18.6349 125.286 19.9083 123.716 19.9083C122.145 19.9083 120.872 18.6349 120.872 17.0642C120.872 15.4935 122.145 14.2202 123.716 14.2202C125.286 14.2202 126.56 15.4935 126.56 17.0642Z" fill="white"/>
<path d="M133.67 17.0642C133.67 18.6349 132.396 19.9083 130.826 19.9083C129.255 19.9083 127.982 18.6349 127.982 17.0642C127.982 15.4935 129.255 14.2202 130.826 14.2202C132.396 14.2202 133.67 15.4935 133.67 17.0642Z" fill="white"/>
<path d="M140.78 17.0642C140.78 18.6349 139.506 19.9083 137.936 19.9083C136.365 19.9083 135.092 18.6349 135.092 17.0642C135.092 15.4935 136.365 14.2202 137.936 14.2202C139.506 14.2202 140.78 15.4935 140.78 17.0642Z" fill="white"/>
<path d="M19.9083 9.95413C19.9083 11.5248 18.6349 12.7982 17.0642 12.7982C15.4935 12.7982 14.2202 11.5248 14.2202 9.95413C14.2202 8.38341 15.4935 7.11009 17.0642 7.11009C18.6349 7.11009 19.9083 8.38341 19.9083 9.95413Z" fill="white"/>
<path d="M27.0183 9.95413C27.0183 11.5248 25.745 12.7982 24.1743 12.7982C22.6036 12.7982 21.3303 11.5248 21.3303 9.95413C21.3303 8.38341 22.6036 7.11009 24.1743 7.11009C25.745 7.11009 27.0183 8.38341 27.0183 9.95413Z" fill="white"/>
<path d="M133.67 9.95413C133.67 11.5248 132.396 12.7982 130.826 12.7982C129.255 12.7982 127.982 11.5248 127.982 9.95413C127.982 8.38341 129.255 7.11009 130.826 7.11009C132.396 7.11009 133.67 8.38341 133.67 9.95413Z" fill="white"/>
<path d="M140.78 9.95413C140.78 11.5248 139.506 12.7982 137.936 12.7982C136.365 12.7982 135.092 11.5248 135.092 9.95413C135.092 8.38341 136.365 7.11009 137.936 7.11009C139.506 7.11009 140.78 8.38341 140.78 9.95413Z" fill="white"/>
<path d="M19.9083 2.84404C19.9083 4.41476 18.6349 5.68807 17.0642 5.68807C15.4935 5.68807 14.2202 4.41476 14.2202 2.84404C14.2202 1.27332 15.4935 0 17.0642 0C18.6349 0 19.9083 1.27332 19.9083 2.84404Z" fill="white"/>
<path d="M140.78 2.84404C140.78 4.41475 139.506 5.68807 137.936 5.68807C136.365 5.68807 135.092 4.41475 135.092 2.84404C135.092 1.27332 136.365 0 137.936 0C139.506 0 140.78 1.27332 140.78 2.84404Z" fill="white"/>
</svg>
