<svg width="76" height="37" viewBox="0 0 76 37" fill="none" xmlns="http://www.w3.org/2000/svg">
<path d="M12.0457 18.8338L12.0975 36.2946C12.0975 36.3973 12.0457 36.4486 11.9421 36.4486H11.2173C11.1138 36.4486 11.062 36.3973 11.062 36.2946L11.1138 18.8338L11.062 1.42439H0.655323C0.551774 1.42439 0.5 1.37304 0.5 1.27033V0.705421C0.5 0.602712 0.551774 0.551355 0.655323 0.551355H22.5041C22.6077 0.551355 22.6595 0.602712 22.6595 0.705421V1.27033C22.6595 1.37304 22.6077 1.42439 22.5041 1.42439H12.1492L12.0457 18.8338Z" fill="white"/>
<path d="M37.6215 18.3203L37.725 36.2946C37.725 36.3973 37.6732 36.4486 37.5697 36.4486H36.7931C36.6895 36.4486 36.6377 36.3973 36.6377 36.2946L36.6895 18.3203L36.6377 0.705421C36.6377 0.602712 36.6895 0.551355 36.7931 0.551355H37.5697C37.6732 0.551355 37.725 0.602712 37.725 0.705421L37.6215 18.3203Z" fill="white"/>
<path d="M62.5772 18.1662L50.8762 36.3973C50.8244 36.4486 50.7726 36.5 50.6691 36.5H49.8925C49.7889 36.5 49.7371 36.3973 49.7889 36.2946L62.0077 17.3445L51.1868 0.705421C51.1351 0.602712 51.1868 0.551355 51.2904 0.551355H52.1705C52.2741 0.551355 52.3259 0.551355 52.3776 0.654067L62.6807 16.5228L72.8803 0.602712C72.9321 0.551355 72.9839 0.5 73.0874 0.5H73.8123C73.9676 0.5 74.0194 0.602712 73.9158 0.705421L63.2503 17.3959L75.469 36.2946C75.5208 36.3973 75.5208 36.4486 75.3655 36.4486H74.5371C74.4335 36.4486 74.3818 36.4486 74.33 36.3973L62.5772 18.1662Z" fill="white"/>
<path d="M12.0457 18.8338L12.0975 36.2946C12.0975 36.3973 12.0457 36.4486 11.9421 36.4486H11.2173C11.1138 36.4486 11.062 36.3973 11.062 36.2946L11.1138 18.8338L11.062 1.42439H0.655323C0.551774 1.42439 0.5 1.37304 0.5 1.27033V0.705421C0.5 0.602712 0.551774 0.551355 0.655323 0.551355H22.5041C22.6077 0.551355 22.6595 0.602712 22.6595 0.705421V1.27033C22.6595 1.37304 22.6077 1.42439 22.5041 1.42439H12.1492L12.0457 18.8338Z" stroke="white"/>
<path d="M37.6215 18.3203L37.725 36.2946C37.725 36.3973 37.6732 36.4486 37.5697 36.4486H36.7931C36.6895 36.4486 36.6377 36.3973 36.6377 36.2946L36.6895 18.3203L36.6377 0.705421C36.6377 0.602712 36.6895 0.551355 36.7931 0.551355H37.5697C37.6732 0.551355 37.725 0.602712 37.725 0.705421L37.6215 18.3203Z" stroke="white"/>
<path d="M62.5772 18.1662L50.8762 36.3973C50.8244 36.4486 50.7726 36.5 50.6691 36.5H49.8925C49.7889 36.5 49.7371 36.3973 49.7889 36.2946L62.0077 17.3445L51.1868 0.705421C51.1351 0.602712 51.1868 0.551355 51.2904 0.551355H52.1705C52.2741 0.551355 52.3259 0.551355 52.3776 0.654067L62.6807 16.5228L72.8803 0.602712C72.9321 0.551355 72.9839 0.5 73.0874 0.5H73.8123C73.9676 0.5 74.0194 0.602712 73.9158 0.705421L63.2503 17.3959L75.469 36.2946C75.5208 36.3973 75.5208 36.4486 75.3655 36.4486H74.5371C74.4335 36.4486 74.3818 36.4486 74.33 36.3973L62.5772 18.1662Z" stroke="white"/>
</svg>
