<svg width="165" height="42" viewBox="0 0 165 42" fill="none" xmlns="http://www.w3.org/2000/svg">
<g clip-path="url(#clip0_1089_10857)">
<path d="M15.062 0C12.5954 0 10.5949 1.9986 10.5949 4.46284V7.14517H10.5833C10.5884 8.15601 10.3085 9.01035 9.70629 9.61198C9.10408 10.2136 8.24891 10.4933 7.23708 10.4881V10.4997H0.0849609V20.9994H6.12895C8.5956 20.9994 10.5949 19.002 10.5949 16.5378V13.8529H10.6064C10.6013 12.8421 10.8812 11.9877 11.4834 11.3861C12.0856 10.7845 12.9408 10.5048 13.9526 10.5099V10.4984H37.6586C40.1253 10.4984 42.1258 8.4998 42.1258 6.03555V0H15.062Z" fill="white"/>
<path d="M15.062 20.9994C12.5954 20.9994 10.5961 22.9967 10.5961 25.4609V28.1445H10.5846C10.5897 29.1554 10.3098 30.0097 9.70758 30.6113C9.10536 31.213 8.25019 31.4926 7.23836 31.4875V31.499H0.0849609V41.9987H6.12638C8.59431 41.9987 10.5961 40.0001 10.5961 37.5333V34.8523H10.6077C10.6026 33.8414 10.8825 32.9871 11.4847 32.3855C12.0869 31.7838 12.9421 31.5042 13.9539 31.5093V31.4978H27.4518C29.9133 31.4978 31.9087 29.5043 31.9087 27.0452V20.9981H15.062V20.9994Z" fill="white"/>
<path d="M61.1401 8.45232V12.311H72.1533V15.5975H61.1401V21.837H57.3252V5.1658H74.2039V8.45232H61.1401Z" fill="white"/>
<path d="M76.3506 5.28527C76.3506 4.16539 77.2802 3.40341 78.5912 3.40341C79.9022 3.40341 80.7844 4.16539 80.7844 5.28527C80.7844 6.40515 79.8779 7.14276 78.5912 7.14276C77.3046 7.14276 76.3506 6.35641 76.3506 5.28527ZM80.4749 21.8372H76.7795V8.71418H80.4749V21.8372Z" fill="white"/>
<path d="M84.2412 21.837V8.71402H87.9367V11.0243C89.0089 9.28614 91.1314 8.2381 93.6584 8.2381C97.5914 8.2381 99.6176 10.7383 99.6176 14.2403V21.837H95.9221V14.4776C95.9221 12.3341 94.7781 11.1667 92.5849 11.1667C90.6306 11.1667 89.0089 12.0711 87.9367 13.953V21.8357H84.2412V21.837Z" fill="white"/>
<path d="M117.688 14.502V19.3369C117.688 20.29 117.855 21.075 118.284 21.837H114.493C114.207 21.3611 114.017 20.7659 114.017 20.2887V20.2643C113.015 21.3598 111.084 22.3129 108.557 22.3129C105.744 22.3129 102.097 21.1931 102.097 17.7872C102.097 14.3814 105.745 13.2859 108.557 13.2859C111.084 13.2859 113.015 14.2147 114.017 15.3345V14.4776C114.017 12.048 112.42 11 109.272 11C107.485 11 106.055 11.2386 104.48 12.0955L103.384 9.66587C105.101 8.78459 107.675 8.21246 110.011 8.21246C114.803 8.21246 117.687 10.4279 117.687 14.4994L117.688 14.502ZM114.089 17.6218C113.112 16.0734 111.156 15.6924 109.464 15.6924C107.938 15.6924 105.698 16.0503 105.698 17.7885C105.698 19.5267 107.938 19.9077 109.464 19.9077C111.156 19.9077 113.112 19.5023 114.089 17.9553V17.6218Z" fill="white"/>
<path d="M121.455 21.837V4.21271H125.151V21.837H121.455Z" fill="white"/>
<path d="M128.63 5.28512C128.63 4.16524 129.56 3.40326 130.871 3.40326C132.182 3.40326 133.064 4.16524 133.064 5.28512C133.064 6.405 132.158 7.14261 130.871 7.14261C129.584 7.14261 128.63 6.35625 128.63 5.28512ZM132.755 21.837H129.059V8.71403H132.755V21.837Z" fill="white"/>
<path d="M146.748 21.075C145.627 21.837 143.982 22.3373 142.434 22.3373C139.668 22.3373 137.522 20.8364 137.522 17.8834V11.4772H135.09V8.71403H137.522V5.66611H141.218V8.71403H146.629V11.4772H141.218V17.2408C141.218 18.5749 142.219 19.265 143.53 19.265C144.437 19.265 145.247 18.9315 145.985 18.5749L146.748 21.075Z" fill="white"/>
<path d="M164.318 8.71402L154.735 26.6H150.969L154.092 21.0276L147.417 8.7153H151.303L155.976 17.5987L160.506 8.7153H164.321L164.318 8.71402Z" fill="white"/>
<path d="M62.85 36.7226L63.4523 37.0754C62.9553 38.0028 62.036 38.5955 60.7468 38.5955C58.7796 38.5955 57.5752 37.323 57.5752 35.3179C57.5752 33.3129 58.7809 32.0404 60.7699 32.0404C62.036 32.0404 62.9553 32.6408 63.4523 33.5605L62.85 33.9146C62.4353 33.0923 61.6816 32.7305 60.7635 32.7305C59.2342 32.7305 58.2236 33.6144 58.2236 35.3192C58.2236 37.0241 59.2329 37.9079 60.7635 37.9079C61.6828 37.9079 62.4443 37.5539 62.85 36.7239V36.7226Z" fill="white"/>
<path d="M69.6774 36.7495H66.1206L65.3515 38.4107H64.6504L67.551 32.2251H68.2598L71.1605 38.4107H70.4453L69.6761 36.7495H69.6774ZM69.368 36.0773L67.899 32.905L66.4301 36.0773H69.3693H69.368Z" fill="white"/>
<path d="M78.5463 34.1865C78.5463 35.4231 77.7399 36.1479 76.5265 36.1479H73.6335V38.4095H73.0005V32.2238H76.5265C77.7399 32.2238 78.5463 32.9486 78.5463 34.1852V34.1865ZM77.8978 34.1865C77.8978 33.3206 77.3406 32.914 76.4815 32.914H73.6335V35.459H76.4815C77.3406 35.459 77.8978 35.0524 77.8978 34.1865Z" fill="white"/>
<path d="M80.5894 38.4107V32.2251H81.2224V38.4107H80.5894Z" fill="white"/>
<path d="M88.7185 32.8973H86.2249V38.4107H85.5919V32.8973H83.106V32.2264H88.7198V32.8973H88.7185Z" fill="white"/>
<path d="M94.009 36.7495H90.4522L89.683 38.4107H88.9819L91.8826 32.2251H92.5914L95.492 38.4107H94.7768L94.0077 36.7495H94.009ZM93.6995 36.0773L92.2306 32.905L90.7616 36.0773H93.7008H93.6995Z" fill="white"/>
<path d="M102.004 37.7219V38.4107H97.333V32.2251H97.966V37.7206H102.004V37.7219Z" fill="white"/>
<path d="M112.493 34.1865C112.493 35.4231 111.686 36.1479 110.473 36.1479H107.58V38.4095H106.947V32.2238H110.473C111.686 32.2238 112.493 32.9486 112.493 34.1852V34.1865ZM111.844 34.1865C111.844 33.3206 111.287 32.914 110.428 32.914H107.58V35.459H110.428C111.287 35.459 111.844 35.0524 111.844 34.1865Z" fill="white"/>
<path d="M118.242 36.7495H114.686L113.916 38.4107H113.215L116.116 32.2251H116.825L119.725 38.4107H119.01L118.241 36.7495H118.242ZM117.933 36.0773L116.464 32.905L114.995 36.0773H117.934H117.933Z" fill="white"/>
<path d="M126.464 38.4107L124.717 36.0427H122.208V38.4107H121.567V32.2251H125.108C126.283 32.2251 127.128 32.914 127.128 34.1339C127.128 35.2114 126.466 35.8836 125.493 36.0158L127.294 38.4107H126.464ZM125.063 35.3538C125.915 35.3538 126.48 34.9741 126.48 34.1339C126.48 33.2937 125.915 32.914 125.063 32.914H122.2V35.3526H125.063V35.3538Z" fill="white"/>
<path d="M134.09 32.8973H131.596V38.4107H130.963V32.8973H128.478V32.2264H134.091V32.8973H134.09Z" fill="white"/>
<path d="M141.58 32.2251V38.4107H141.023L136.593 33.1705V38.4107H135.975V32.2251H136.661L140.964 37.3229V32.2251H141.581H141.58Z" fill="white"/>
<path d="M149.274 37.7219V38.4107H144.172V32.2251H149.198V32.914H144.805V34.9202H148.528V35.6091H144.805V37.7206H149.274V37.7219Z" fill="white"/>
<path d="M156.32 38.4107L154.572 36.0427H152.063V38.4107H151.422V32.2251H154.964C156.139 32.2251 156.984 32.914 156.984 34.1339C156.984 35.2114 156.321 35.8836 155.349 36.0158L157.149 38.4107H156.321H156.32ZM154.919 35.3538C155.77 35.3538 156.335 34.9741 156.335 34.1339C156.335 33.2937 155.77 32.914 154.919 32.914H152.055V35.3526H154.919V35.3538Z" fill="white"/>
<path d="M164.51 36.6174C164.51 37.7578 163.523 38.5968 161.805 38.5968C160.652 38.5968 159.545 38.1722 158.723 37.3242L159.167 36.7675C159.937 37.5628 160.788 37.9079 161.842 37.9079C163.116 37.9079 163.862 37.4397 163.862 36.6713C163.862 35.9029 163.086 35.7349 161.661 35.5937C160.252 35.4526 158.903 35.0896 158.903 33.871C158.903 32.6523 160.154 32.0417 161.562 32.0417C162.708 32.0417 163.649 32.5099 164.26 33.1462L163.763 33.6413C163.251 33.0487 162.475 32.7395 161.593 32.7318C160.651 32.7229 159.551 33.032 159.551 33.8453C159.551 34.6137 160.546 34.7728 161.789 34.8882C163.394 35.0383 164.509 35.4 164.509 36.62L164.51 36.6174Z" fill="white"/>
</g>
<defs>
<clipPath id="clip0_1089_10857">
<rect width="164.426" height="42" fill="white" transform="translate(0.0849609)"/>
</clipPath>
</defs>
</svg>
