<svg width="137" height="20" viewBox="0 0 137 20" fill="none" xmlns="http://www.w3.org/2000/svg">
<path fill-rule="evenodd" clip-rule="evenodd" d="M88.0935 5.8609C90.7168 5.86091 93.1898 6.85855 93.1898 10.0313C93.1898 11.842 91.8901 17.1398 91.5833 19.6857H88.7048L89.0614 17.6124H89.0099C87.8383 19.1339 86.6661 20 84.7789 20C82.4102 20 80.7281 18.6353 80.7281 16.1447C80.7282 11.6849 85.57 11.3432 88.7808 11.3432H89.9778C90.081 10.9749 90.081 10.5815 90.081 10.1898C90.081 8.8251 88.6537 8.43187 87.4549 8.43187C85.9521 8.43188 84.4993 8.82516 83.1491 9.48097L83.6339 6.67383C85.085 6.14984 86.564 5.8609 88.0935 5.8609ZM88.3986 13.4405C86.7421 13.4405 83.9906 13.7306 83.9906 16.0113C83.9906 16.9564 84.8548 17.429 85.7213 17.429C88.2726 17.429 89.0614 15.6198 89.5956 13.4405H88.3986Z" fill="white"/>
<path d="M6.42207 6.1636H9.4794L8.94472 8.73443H5.88667L4.63773 14.6371C4.56152 14.9522 4.48526 15.4235 4.48526 15.9474C4.48526 16.7603 5.02048 17.2592 5.78405 17.2592C6.39697 17.2592 7.00797 17.1286 7.44084 16.9451L6.85558 19.6731C6.26928 19.8035 5.60733 19.9885 5.02052 19.9885C2.7017 19.9885 1.06996 19.0432 1.06993 16.445C1.06993 15.3968 1.27389 14.374 1.50272 13.2996L2.47163 8.73443H0L0.535257 6.1636H3.00689L3.59273 3.38391L7.26315 2.14997L6.42207 6.1636Z" fill="white"/>
<path d="M22.0348 5.84956C23.3101 5.84956 24.533 6.08572 25.4503 6.37321L24.6091 9.25853C23.9469 8.81252 23.0551 8.57733 22.1115 8.57733C19.3853 8.57734 17.8564 11.1999 17.8564 13.7448C17.8564 15.5012 18.4162 17.2592 20.7614 17.2592C21.6029 17.2592 22.6481 17.0232 23.5393 16.5767L23.1564 19.3589C22.1115 19.8829 20.9902 19.9885 19.8689 19.9885C16.4799 19.9885 14.2889 17.6536 14.2889 14.1643C14.2889 9.44328 17.3209 5.84958 22.0348 5.84956Z" fill="white"/>
<path d="M44.543 5.84956C47.7794 5.84956 49.9198 7.55492 49.9198 10.9902C49.9198 12.013 49.7919 13.0095 49.5879 14.0071H41.5468C41.553 13.3663 41.6055 12.6551 41.9088 11.5932H46.5819C46.6319 11.279 46.6581 10.9902 46.6581 10.676C46.6581 9.23222 45.918 8.42039 44.4918 8.42039C42.4787 8.42039 41.5518 9.60807 40.8955 11.3269C40.5523 12.1701 40.3552 13.0825 40.3399 14.0071H40.3375C40.3375 14.0214 40.3386 14.0321 40.3386 14.0465C40.3386 14.0713 40.3375 14.0966 40.3375 14.1216C40.3375 14.2509 40.3492 14.3718 40.3552 14.4949H40.3579C40.5213 16.6182 41.7978 17.4177 43.9815 17.4177C45.3831 17.4177 46.7345 17.0506 48.0085 16.445L47.5756 19.2269C46.2504 19.6469 44.7975 19.9885 43.3967 19.9885C39.624 19.9885 37.0752 18.0987 37.0752 14.0852C37.0752 9.8893 40.2363 5.84956 44.543 5.84956Z" fill="white"/>
<path d="M56.949 6.1636H60.0073L59.4715 8.73443H56.4137L55.1647 14.6371C55.0883 14.9522 55.0128 15.4235 55.0128 15.9474C55.0128 16.7603 55.5472 17.2592 56.3121 17.2592C56.9234 17.2592 57.5348 17.1286 57.9675 16.9451L57.3828 19.6731C56.7959 19.8035 56.1335 19.9885 55.5472 19.9885C53.2284 19.9885 51.5969 19.0432 51.5969 16.445C51.5969 15.3968 51.8007 14.374 52.0308 13.2996L52.9983 8.73443H50.5269L51.0622 6.1636H53.5338L54.1198 3.38391L57.7901 2.14997L56.949 6.1636Z" fill="white"/>
<path d="M100.876 5.84956C102.126 5.84956 103.401 6.08583 104.072 6.2655L103.332 8.91435C102.966 8.70818 102.023 8.42039 101.055 8.42039C100.035 8.42039 98.7614 8.70818 98.7614 9.78263C98.7615 11.4888 103.195 12.1184 103.195 15.4235C103.195 18.9396 100.214 19.9885 97.2847 19.9885C95.9073 19.9885 94.5304 19.7788 93.2829 19.1742L94.0228 16.3681C94.9891 16.9177 95.9589 17.4177 97.2847 17.4177C98.4291 17.4177 99.6285 17.0232 99.6285 15.9224C99.6285 13.7449 95.1939 13.5334 95.1939 10.1505C95.1939 6.97801 98.1756 5.84957 100.876 5.84956Z" fill="white"/>
<path d="M111.401 6.1636H114.459L113.925 8.73443H110.865L109.617 14.6371C109.541 14.9522 109.464 15.4235 109.464 15.9474C109.464 16.7603 110.001 17.2592 110.764 17.2592C111.376 17.2592 111.988 17.1284 112.421 16.9449L111.834 19.6731C111.248 19.8035 110.586 19.9885 110 19.9885C107.681 19.9885 106.05 19.0432 106.05 16.445C106.05 15.3968 106.255 14.374 106.483 13.2996L107.451 8.73443H104.979L105.515 6.1636H107.987L108.573 3.38391L112.242 2.14997L111.401 6.1636Z" fill="white"/>
<path d="M120.92 5.84956C124.157 5.84956 126.297 7.55492 126.297 10.9902C126.297 12.013 126.17 13.0095 125.966 14.0071H117.923C117.93 13.3663 117.982 12.6551 118.287 11.5932H122.96C123.009 11.279 123.035 10.9902 123.035 10.676C123.035 9.23222 122.295 8.42039 120.869 8.42039C118.856 8.4204 117.928 9.6081 117.272 11.3269C116.929 12.1701 116.732 13.0825 116.716 14.0071H116.715C116.715 14.0214 116.716 14.0321 116.716 14.0465C116.716 14.0713 116.715 14.0966 116.715 14.1216C116.715 14.2509 116.727 14.3718 116.732 14.4949H116.734C116.899 16.6182 118.175 17.4177 120.359 17.4177C121.761 17.4177 123.112 17.0505 124.386 16.445L123.954 19.2269C122.628 19.6469 121.174 19.9885 119.774 19.9885C116.001 19.9885 113.453 18.0987 113.453 14.0852C113.453 9.88931 116.614 5.84959 120.92 5.84956Z" fill="white"/>
<path d="M11.4936 19.6731H8.07784L10.8821 6.1636H14.2974L11.4936 19.6731Z" fill="white"/>
<path d="M29.5007 11.0692H29.5533L34.3188 6.1636H38.7524L32.4588 12.3281L36.4075 19.6731H32.5597L29.1693 12.5119H29.1194L27.641 19.6731H24.3027L28.3546 0H31.7696L29.5007 11.0692Z" fill="white"/>
<path d="M76.7193 5.84956C78.6809 5.84956 80.3645 7.50175 80.3645 9.54751C80.3645 10.7537 80.0567 12.1183 79.7776 13.2192L78.4013 19.6731H74.9857L76.3626 13.0885C76.5412 12.2755 76.7958 11.0152 76.7958 10.2035C76.7958 9.20592 76.0576 8.57721 75.1911 8.57718C72.8201 8.57718 72.2342 11.4111 71.8004 13.2468L70.4507 19.6731H67.0357L68.412 13.0885C68.5912 12.2755 68.8454 11.0152 68.8454 10.2035C68.8454 9.2059 68.1052 8.57718 67.2387 8.57718C64.9205 8.57721 64.2831 11.4362 63.8504 13.2468L62.4991 19.6731H59.0852L61.4805 7.65907C61.5814 7.13487 61.6841 6.58467 61.7601 6.1636H64.9467L64.6404 7.97327H64.6915C65.609 6.58466 67.1117 5.84957 68.7171 5.84956C70.2721 5.84956 71.8776 6.79327 72.0562 8.42039H72.1072C72.9743 6.66236 74.8859 5.84956 76.7193 5.84956Z" fill="white"/>
<path d="M135.701 5.84956C136.135 5.84956 136.592 5.8746 137 5.97995L136.287 9.41563C135.906 9.28479 135.419 9.20587 134.987 9.20587C132.565 9.20587 131.393 11.4362 130.961 13.6137L129.737 19.6731H126.323L128.667 7.97327C128.773 7.3707 128.875 6.76745 128.973 6.1636H132.235L131.776 8.70817H131.828C132.441 7.23929 134.12 5.84956 135.701 5.84956Z" fill="white"/>
<path d="M14.8325 3.69825H11.4172L12.131 0.339107H15.5461L14.8325 3.69825Z" fill="white"/>
</svg>
